<svg xmlns="http://www.w3.org/2000/svg" class="looka-1j8o68f" viewBox="0 0 76.09 76.09"><defs id="SvgjsDefs1227"/><g id="SvgjsG1228" featurekey="symbolFeature-0" transform="matrix(0.07739493277516414,0,0,0.07739493277516414,-0.03869746638758207,-0.03869746638758207)" fill="#111111"><g xmlns="http://www.w3.org/2000/svg"><path d="M534,247.1c11.2-11.2,17.4-26.1,17.4-42c0-32.8-26.7-59.4-59.4-59.4c-32.7,0-59.4,26.7-59.4,59.4c0,15.9,6.2,30.8,17.4,42   L652.8,450l-42,42L408,289.1c-21.5-21.5-34.8-51.3-34.8-84.1v0c0-65.6,53.2-118.8,118.8-118.8c65.6,0,118.8,53.2,118.8,118.8   c0,32.8-13.3,62.5-34.8,84L534,247.1z"/><path d="M534,247.1l8.1,8.1c13.4-13.3,20.8-31.3,20.8-50.2c0-39.1-31.8-70.9-70.9-70.9c-39.1,0-70.8,31.8-70.9,70.9v0   c0,18.9,7.4,36.8,20.8,50.2L636.6,450l-25.7,25.7L416.1,281c-19.5-19.5-31.4-46.3-31.4-75.9c0-3-1.2-6-3.4-8.1s-5.1-3.4-8.1-3.4   c-3,0-6,1.2-8.1,3.4s-3.4,5.1-3.4,8.1v0c0,3,1.2,6,3.4,8.1s5.1,3.4,8.1,3.4c3,0,6-1.2,8.1-3.4s3.4-5.1,3.4-8.1   c0.1-59.3,48.1-107.2,107.3-107.3c59.3,0.1,107.2,48.1,107.3,107.3c0,29.7-12,56.4-31.4,75.9l8.1,8.1l8.1-8.1l-42-42L534,247.1   l8.1,8.1L534,247.1l-8.1,8.1l42,42c2.1,2.1,5.1,3.4,8.1,3.4c3,0,6-1.2,8.1-3.4c23.6-23.6,38.2-56.2,38.2-92.2   c0-72-58.3-130.3-130.3-130.3c-72,0-130.3,58.3-130.3,130.3c0,3,1.2,6,3.4,8.1s5.1,3.4,8.1,3.4c3,0,6-1.2,8.1-3.4s3.4-5.1,3.4-8.1   v0c0-3-1.2-6-3.4-8.1s-5.1-3.4-8.1-3.4c-3,0-6,1.2-8.1,3.4s-3.4,5.1-3.4,8.1c0,35.9,14.6,68.6,38.2,92.2l202.9,202.8   c4.5,4.5,11.8,4.5,16.3,0l42-42c2.1-2.1,3.4-5.1,3.4-8.1c0-3-1.2-6-3.4-8.1L458.1,239c-9.1-9.1-14-21-14.1-33.9v0   c0-26.4,21.5-47.9,47.9-47.9c26.4,0,47.9,21.5,47.9,47.9c0,12.9-4.9,24.8-14,33.9c-2.2,2.2-3.4,5.1-3.4,8.1c0,3.1,1.2,6,3.4,8.1   L534,247.1z"/><path d="M736.8,534c11.2,11.2,26.1,17.4,42,17.4c32.7,0,59.4-26.7,59.4-59.4c0-32.8-26.6-59.4-59.3-59.4v0   c-15.9,0-30.8,6.2-42,17.4L534,652.8l-42-42L694.9,408c21.5-21.5,51.2-34.8,84-34.8l0,0c65.6,0,118.8,53.2,118.8,118.9   s-53.2,118.8-118.8,118.8c-32.8,0-62.5-13.3-84-34.8L736.8,534z"/><path d="M736.8,534l-8.1,8.1c13.3,13.4,31.3,20.8,50.2,20.8c39.1,0,70.9-31.8,70.9-70.9c0-39.1-31.7-70.9-70.8-70.9   c-3.1,0-6,1.2-8.1,3.4c-2.2,2.2-3.4,5.1-3.4,8.1v0h11.5v-11.5c-18.9,0-36.8,7.4-50.2,20.7l0,0L534,636.6l-25.7-25.7L703,416.1   c19.5-19.4,46.2-31.4,75.9-31.4c5.3,0,10-3.7,11.2-8.9c1.2-5.2-1.3-10.6-6.1-12.9l0,0l-5.1,10.3v11.5   c59.3,0.1,107.2,48.1,107.3,107.4c-0.1,59.3-48.1,107.2-107.3,107.3c-29.7,0-56.4-12-75.9-31.4l-8.1,8.1l8.1,8.1l42-42L736.8,534   l-8.1,8.1L736.8,534l-8.1-8.1l-42,42c-4.5,4.5-4.5,11.8,0,16.3c23.5,23.6,56.2,38.2,92.2,38.2c72,0,130.3-58.3,130.3-130.3   c0-72-58.3-130.4-130.3-130.4c-5.3,0-10,3.7-11.2,8.9c-1.2,5.2,1.3,10.6,6.1,12.9l0,0l5.1-10.3v-11.5c-36,0-68.6,14.6-92.2,38.2   L483.9,602.7c-2.1,2.1-3.4,5.1-3.4,8.1c0,3,1.2,6,3.4,8.1l42,42c4.5,4.5,11.8,4.5,16.3,0L745,458.1l0,0c9.2-9.1,21-14,33.9-14   c3,0,6-1.2,8.1-3.4s3.4-5.1,3.4-8.1v0h-11.5l0,11.5c26.4,0,47.9,21.5,47.8,47.9c0,26.4-21.5,47.9-47.9,47.9   c-12.9,0-24.8-4.9-33.9-14c-2.2-2.2-5.1-3.4-8.1-3.4c-3.1,0-6,1.2-8.1,3.4L736.8,534z"/><path d="M247.1,450c-11.3-11.2-26.1-17.4-42-17.4c-32.8,0-59.4,26.7-59.4,59.4c0,32.8,26.6,59.4,59.4,59.5v0   c15.9,0,30.8-6.2,42-17.4L450,331.2l42,42L289.1,576c-21.5,21.5-51.3,34.8-84.1,34.8l0,0c-65.7,0-118.8-53.2-118.8-118.9   c0-65.6,53.2-118.8,118.8-118.8c32.8,0,62.5,13.3,84,34.8L247.1,450z"/><path d="M247.1,450l8.1-8.1c-13.3-13.4-31.3-20.8-50.2-20.8c-39.1,0-70.9,31.8-70.9,70.9c0,39.1,31.7,70.9,70.9,71   c3.1,0,6-1.2,8.1-3.4c2.2-2.2,3.4-5.1,3.4-8.1v0h-11.5v11.5c18.9,0,36.8-7.4,50.2-20.8l0,0L450,347.4l25.7,25.7L281,567.9l0,0   c-19.5,19.4-46.3,31.4-75.9,31.5c-5.1,0-9.5,3.3-11,8.1c-1.5,4.8,0.4,10.1,4.6,12.9l0,0l6.4-9.5v-11.5   C145.8,599.2,97.9,551.3,97.8,492c0.1-59.3,48-107.2,107.3-107.3c29.7,0,56.4,12,75.9,31.4l8.1-8.1l-8.1-8.1l-42,42L247.1,450   l8.1-8.1L247.1,450l8.1,8.1l42-42c2.2-2.2,3.4-5.1,3.4-8.1c0-3.1-1.2-6-3.4-8.1c-23.6-23.5-56.2-38.2-92.2-38.1   c-72,0-130.3,58.3-130.3,130.3c0,72,58.3,130.4,130.3,130.4c5.1,0,9.5-3.3,11-8.1c1.5-4.8-0.4-10.1-4.6-12.9l0,0l-6.4,9.5v11.5   c35.9,0,68.6-14.6,92.2-38.2l0,0l202.9-202.8c4.5-4.5,4.5-11.8,0-16.3l-42-42c-4.5-4.5-11.8-4.5-16.3,0L239,525.9l0,0   c-9.2,9.1-21,14-33.9,14.1c-3,0-6,1.2-8.1,3.4s-3.4,5.1-3.4,8.1v0h11.5l0-11.5c-26.4,0-47.9-21.5-47.9-48   c0-26.4,21.5-47.8,47.9-47.9c12.9,0,24.7,4.9,33.9,14c4.5,4.5,11.8,4.5,16.3,0L247.1,450z"/><path d="M778.9,298.9h-11.5v0L778.9,298.9v-11.5c-49.3,0-96,17.5-133,49.3l7.5,8.7l8.1-8.1l-14.7-14.7l-8.1,8.1l8.7,7.5   c31.8-37,49.2-83.8,49.2-133.1l0,0C696.6,92.3,604.9,0.5,492,0.5c-112.9,0-204.6,91.8-204.6,204.6c0,49.3,17.6,96,49.3,133l8.7-7.5   l-8.1-8.1l-14.7,14.7l8.1,8.1l7.5-8.7c-37-31.8-83.9-49.2-133.2-49.2C92.3,287.4,0.5,379.2,0.5,492c0,112.9,91.8,204.6,204.6,204.7   c3,0,6-1.2,8.1-3.4s3.4-5.1,3.4-8.1v0h-11.5v11.5c49.3,0,96-17.5,133-49.3l-7.5-8.7l-8.1,8.1l14.7,14.7l8.1-8.1l-8.7-7.5   c-31.8,37-49.2,83.9-49.2,133.1c0,112.8,91.8,204.6,204.6,204.6c112.9,0,204.6-91.8,204.6-204.6c0-3-1.2-6-3.4-8.1   s-5.1-3.4-8.1-3.4h0v11.5h11.5c0-49.3-17.5-96-49.3-133l-8.7,7.5l8.1,8.1l14.7-14.7l-8.1-8.1l-7.5,8.7   c37,31.9,83.9,49.2,133.2,49.2l0,0c112.8,0,204.6-91.8,204.6-204.6c0-112.9-91.8-204.6-204.6-204.7c-3,0-6,1.2-8.1,3.4   s-3.4,5.1-3.4,8.1H778.9v11.5C879,310.6,960.3,391.9,960.5,492c-0.2,100.1-81.5,181.4-181.6,181.6l0,0   c-43.9,0-85.2-15.4-118.2-43.7c-4.6-3.9-11.4-3.7-15.6,0.6l-14.7,14.7c-4.2,4.2-4.5,11.1-0.6,15.6c28.3,33,43.8,74.2,43.8,118   c0,3,1.2,6,3.4,8.1s5.1,3.4,8.1,3.4h0v-11.5h-11.5C673.4,879,592.1,960.3,492,960.5c-100.1-0.2-181.5-81.5-181.6-181.6   c0-43.9,15.4-85.2,43.7-118.2c3.9-4.6,3.7-11.4-0.6-15.6l-14.7-14.7c-4.2-4.2-11.1-4.5-15.6-0.6c-33,28.3-74.2,43.8-118,43.8   c-3,0-6,1.2-8.1,3.4s-3.4,5.1-3.4,8.1v0h11.5v-11.5C105,673.4,23.7,592.1,23.5,492c0.2-100.1,81.5-181.4,181.6-181.6   c43.9,0,85.2,15.4,118.2,43.7c4.6,3.9,11.4,3.6,15.6-0.6l14.7-14.7c4.2-4.2,4.5-11.1,0.6-15.6c-28.3-32.9-43.8-74.2-43.8-118   C310.6,105,391.9,23.7,492,23.5c100.1,0.2,181.4,81.5,181.6,181.6l0,0c0,43.9-15.4,85.3-43.6,118.2c-3.9,4.6-3.7,11.4,0.6,15.6   l14.7,14.7c4.2,4.2,11.1,4.5,15.6,0.6c33-28.3,74.2-43.8,118-43.8c3,0,6-1.2,8.1-3.4s3.4-5.1,3.4-8.1v0H778.9v11.5V298.9z"/><path d="M450,736.8c-11.2,11.2-17.4,26.1-17.4,42c0,32.7,26.7,59.4,59.4,59.4c32.7,0,59.4-26.6,59.4-59.4h0   c0-15.9-6.2-30.8-17.4-42L331.1,534l42-42L576,694.9c21.5,21.5,34.8,51.2,34.8,84l0,0c0,65.6-53.2,118.8-118.8,118.8   c-65.7,0-118.8-53.2-118.8-118.8c0-32.8,13.3-62.5,34.8-84L450,736.8z"/><path d="M450,736.8l-8.1-8.1c-13.3,13.3-20.8,31.3-20.7,50.1c0,39.1,31.8,70.9,70.9,70.9c39.1,0,70.9-31.7,70.9-70.9   c0-3.1-1.2-6-3.4-8.1c-2.2-2.2-5.1-3.4-8.1-3.4h0v11.5h11.5c0-18.9-7.4-36.8-20.7-50.2l0,0L347.4,534l25.7-25.8L567.8,703   c19.5,19.5,31.5,46.2,31.5,75.9c0,5.4,3.7,10,8.9,11.2c5.2,1.2,10.6-1.4,12.9-6.2l0,0l-10.4-5h-11.5   c-0.1,59.3-48.1,107.2-107.3,107.3c-59.3-0.1-107.2-48.1-107.3-107.3c0-29.7,12-56.4,31.4-75.9l-8.1-8.1l-8.1,8.1l42,42L450,736.8   l-8.1-8.1L450,736.8l8.1-8.1l-42-42c-4.5-4.5-11.8-4.5-16.3,0c-23.6,23.5-38.2,56.2-38.2,92.2c0,72,58.3,130.3,130.3,130.3   c72,0,130.3-58.3,130.3-130.3c0-5.4-3.7-10-8.9-11.2c-5.2-1.2-10.6,1.4-12.9,6.2l0,0l10.4,5h11.5c0-36-14.6-68.6-38.2-92.2   L381.3,483.8c-2.2-2.2-5.1-3.4-8.1-3.4c-3.1,0-6,1.2-8.1,3.4l-42,42c-4.5,4.5-4.5,11.8,0,16.3L525.9,745l0,0   c9.1,9.2,14,21.1,14.1,33.9c0,3,1.2,6,3.4,8.1s5.1,3.4,8.1,3.4h0v-11.5l-11.5,0c0,26.4-21.5,47.8-47.9,47.9   c-26.4,0-47.9-21.5-47.9-47.9c0-12.9,4.9-24.8,14-33.9c4.5-4.5,4.5-11.8,0-16.3L450,736.8z"/><path d="M491.9,610.8l8.1-8.1L389.3,492l102.6-102.5L594.5,492L483.8,602.7L491.9,610.8l8.1-8.1L491.9,610.8l8.1,8.1l118.8-118.8   c2.1-2.1,3.4-5.1,3.4-8.1c0-3-1.2-6-3.4-8.1L500,365c-4.5-4.5-11.8-4.5-16.3,0L364.9,483.8c-4.5,4.5-4.5,11.8,0,16.3L483.8,619   c2.1,2.1,5.1,3.4,8.1,3.4c3,0,6-1.2,8.1-3.4L491.9,610.8z"/></g></g><g id="SvgjsG1229" featurekey="nameFeature-0" transform="matrix(0.786999266072893,0,0,0.786999266072893,90.46692177829618,23.01625110504413)" fill="#111111"/></svg>