<svg xmlns="http://www.w3.org/2000/svg" version="1.0" preserveAspectRatio="xMidYMid meet" viewBox="235.3 242.11 549 601.4">

<g transform="translate(0.000000,1024.000000) scale(0.100000,-0.100000)" fill="#000000" stroke="none">
<path d="M4332 7809 c-121 -23 -237 -113 -293 -225 -23 -47 -24 -60 -29 -307 l-5 -257 157 0 156 0 4 174 c3 193 7 205 78 254 l33 22 661 0 c642 0 662 -1 694 -20 65 -40 72 -65 72 -257 l0 -173 161 0 160 0 -3 248 -3 247 -32 68 c-56 117 -166 203 -292 227 -65 12 -1456 12 -1519 -1z"/>
<path d="M3565 7033 c-59 -7 -75 -14 -90 -37 -14 -21 -17 -127 -21 -908 -4 -697 -7 -885 -17 -893 -34 -26 -47 -61 -47 -122 l0 -63 262 2 261 3 -2 75 c-2 48 -8 81 -17 91 -12 13 -14 147 -15 885 0 646 -3 878 -12 904 -18 54 -61 70 -177 68 -52 0 -108 -3 -125 -5z m153 -696 c36 -38 38 -78 7 -115 -66 -79 -188 5 -141 96 18 35 28 40 77 41 25 1 42 -6 57 -22z m-5 -317 c77 -61 9 -181 -83 -148 -32 11 -60 52 -60 88 0 12 13 35 29 51 35 35 77 38 114 9z m3 -321 c7 -6 18 -26 24 -45 29 -86 -75 -149 -140 -84 -43 43 -34 109 20 138 26 13 74 9 96 -9z m-1 -326 c40 -39 41 -88 2 -130 -68 -75 -190 40 -127 120 18 22 29 27 65 27 27 0 50 -6 60 -17z"/>
<path d="M6442 7031 c-146 -9 -132 75 -134 -765 -2 -391 -1 -788 1 -883 3 -162 2 -173 -18 -201 -20 -29 -21 -42 -21 -261 l0 -231 260 0 260 0 0 231 0 230 -29 27 -29 27 -5 881 c-4 808 -6 883 -21 906 -31 47 -59 51 -264 39z m129 -684 c54 -42 50 -114 -8 -145 -85 -46 -167 65 -98 133 27 27 79 33 106 12z m10 -336 c37 -37 38 -78 4 -115 -34 -37 -95 -37 -124 0 -70 89 41 194 120 115z m7 -327 c43 -49 14 -127 -54 -140 -46 -9 -94 35 -94 86 0 31 6 44 32 65 38 32 81 29 116 -11z m-3 -319 c55 -55 12 -145 -70 -145 -30 0 -75 53 -75 89 0 16 9 40 21 55 28 36 89 37 124 1z"/>
<path d="M2800 6848 c-173 -15 -314 -110 -392 -263 -34 -65 -48 -134 -48 -239 l0 -99 115 7 c178 11 242 42 323 160 73 104 83 144 80 306 l-3 135 -75 -7z"/>
<path d="M3040 6698 c0 -239 -30 -326 -156 -455 -115 -118 -238 -163 -443 -163 -81 0 -92 -2 -87 -16 3 -9 6 -623 6 -1365 l0 -1349 99 0 c131 0 191 -12 281 -57 91 -46 191 -143 237 -228 49 -94 63 -164 63 -324 l0 -142 108 3 107 3 3 758 2 757 -27 42 -28 42 -3 535 c-2 295 0 550 3 568 3 18 17 46 30 62 l25 29 -2 729 -3 728 -107 3 -108 3 0 -163z"/>
<path d="M4077 6853 c-4 -3 -7 -962 -7 -2130 l0 -2123 1020 0 1020 0 0 2130 0 2130 -1013 0 c-558 0 -1017 -3 -1020 -7z m1158 -1018 c124 -41 237 -159 276 -286 32 -105 24 -224 -22 -317 -38 -77 -123 -168 -189 -202 -173 -88 -373 -59 -508 73 -101 98 -149 221 -139 352 7 96 37 169 102 247 43 53 69 74 127 102 40 20 93 41 118 46 60 12 174 5 235 -15z"/>
<path d="M5052 5563 c-38 -7 -89 -67 -97 -112 -9 -52 21 -119 64 -144 36 -21 102 -22 142 -2 97 51 90 208 -11 249 -40 16 -54 17 -98 9z"/>
<path d="M6930 6122 c0 -726 0 -739 20 -757 35 -32 40 -80 40 -430 0 -350 -5 -398 -40 -430 -20 -18 -20 -32 -20 -962 l0 -943 110 0 110 0 0 143 c0 228 40 338 165 456 115 107 231 150 419 153 l106 1 0 1362 0 1362 -117 6 c-200 11 -305 53 -419 167 -121 120 -154 218 -154 452 l0 158 -110 0 -110 0 0 -738z"/>
<path d="M7321 6851 c-10 -7 -12 -39 -9 -157 4 -143 5 -152 36 -215 41 -86 128 -169 209 -199 45 -17 83 -22 168 -23 l110 -2 -2 110 c-1 81 -7 125 -22 167 -56 161 -213 291 -377 313 -27 3 -60 8 -74 11 -14 2 -31 0 -39 -5z"/>
<path d="M3392 4563 l3 -288 255 0 255 0 3 288 2 287 -90 0 -90 0 0 -49 c0 -67 -13 -96 -50 -111 -62 -26 -100 16 -100 111 l0 49 -95 0 -95 0 2 -287z"/>
<path d="M6250 4233 c0 -307 5 -357 40 -388 20 -18 20 -31 20 -672 0 -359 3 -653 8 -653 27 -1 32 -17 17 -59 -21 -60 -19 -166 4 -217 24 -53 75 -110 120 -135 l36 -20 -196 7 c-263 8 -2073 8 -2374 0 -227 -7 -238 -6 -208 9 48 25 100 80 128 135 32 63 34 164 5 227 -18 41 -18 42 0 48 10 3 21 16 24 28 3 12 6 367 6 789 l0 766 -70 4 -70 3 -6 -33 c-12 -63 -94 -86 -133 -36 -12 15 -21 35 -21 45 0 17 -8 19 -63 19 l-63 0 -2 -770 c-2 -631 1 -777 12 -810 7 -22 10 -40 6 -40 -9 0 -46 44 -53 63 -7 20 -75 -53 -93 -100 -23 -61 -15 -158 19 -215 31 -53 80 -99 132 -126 l40 -21 -30 -1 c-65 -1 -566 -31 -675 -40 -333 -29 -426 -52 -401 -99 28 -52 297 -78 1281 -123 380 -18 2380 -17 2775 0 983 43 1298 72 1325 122 14 26 -9 46 -67 58 -135 29 -381 51 -821 73 l-243 12 47 23 c60 29 119 86 146 143 44 91 21 216 -52 286 l-29 28 -10 -25 c-9 -25 -55 -68 -73 -68 -5 0 2 14 14 31 l23 31 3 646 3 647 35 31 34 32 2 306 c0 168 1 312 2 319 1 9 -27 13 -101 15 l-103 3 0 -56 c0 -67 -21 -115 -53 -116 -68 -4 -91 22 -94 104 l-1 62 -101 3 -101 3 0 -298z m-2537 -383 c30 -24 40 -60 27 -96 -15 -37 -38 -53 -81 -54 -47 0 -81 35 -82 85 -2 70 79 109 136 65z m2856 10 c25 -13 45 -64 37 -95 -16 -65 -97 -87 -141 -39 -67 73 17 181 104 134z m-2862 -332 c47 -23 50 -103 5 -138 -45 -36 -100 -22 -128 31 -26 51 -1 110 51 121 22 5 39 1 72 -14z m2870 -4 c50 -31 35 -122 -23 -144 -38 -15 -50 -12 -83 16 -36 30 -41 75 -15 112 29 42 71 48 121 16z m-2867 -314 c23 -12 39 -59 33 -94 -3 -14 -17 -35 -31 -46 -72 -57 -171 26 -128 108 9 17 21 32 28 35 22 9 79 7 98 -3z m2855 4 c19 -8 45 -55 45 -84 0 -32 -53 -80 -88 -80 -68 0 -105 88 -61 144 21 26 65 35 104 20z"/>
<path d="M2356 3133 c2 -26 5 -82 7 -123 10 -218 226 -409 461 -410 l58 0 -4 143 c-3 135 -5 145 -35 209 -40 85 -106 156 -180 194 -53 27 -68 29 -184 32 l-126 4 3 -49z"/>
<path d="M7579 3161 c-111 -35 -197 -117 -240 -229 -18 -46 -23 -84 -27 -196 l-4 -139 73 6 c161 12 276 73 364 193 67 91 86 148 92 276 l6 108 -104 -1 c-71 0 -122 -6 -160 -18z"/>
</g>
</svg>