<svg xmlns="http://www.w3.org/2000/svg" width="278.85" height="55.70462459972552" viewBox="0 0 398.90510948905114 79.6875" class="looka-1j8o68f"><defs id="SvgjsDefs4998"></defs><g id="SvgjsG4999" featurekey="symbolContainer" transform="matrix(0.3975827097892761,0,0,0.3975827097892761,0,0)" fill="#222831"><path xmlns="http://www.w3.org/2000/svg" d="M100.215 200.43c55.259 0 100.215-44.956 100.215-100.215S155.474 0 100.215 0 0 44.956 0 100.215 44.956 200.43 100.215 200.43zm0-190.43c49.745 0 90.215 40.47 90.215 90.215s-40.47 90.215-90.215 90.215C50.47 190.43 10 149.959 10 100.215S50.47 10 100.215 10z"></path></g><g id="SvgjsG5000" featurekey="symbolFeature-0" transform="matrix(0.6386861205101013,0,0,0.6386861205101013,7.613142949821305,8.335805405665488)" fill="#222831"><g xmlns="http://www.w3.org/2000/svg" transform="translate(0,-952.36218)"><path d="m 60.7828,964.36215 27.1809,0.8834 -27.1809,25.9958 z m -1.9745,1.4513 0,26.7845 -25.2681,0 c 8.6166,-8.7334 16.8796,-17.8103 25.2681,-26.7845 z m 27.7053,3.628 3.4864,1.1989 -12.5877,7.4768 z m -68.1835,2.9656 5.5226,0 12.8654,14.0705 -5.9854,6.1204 -12.4026,0 c 9e-4,-6.7347 0,-13.4597 0,-20.1909 z m -1.9746,1.2304 0,5.8364 -6.3555,0 z m 3.363,20.9796 38.627,0 -10.7675,29.43465 z m 39.0898,4.54286 0,41.20229 -12.5878,-6.8775 c 4.1972,-11.443 8.3886,-22.879 12.5878,-34.32479 z" style="text-indent:0;text-transform:none;direction:ltr;block-progression:tb;baseline-shift:baseline;color:;enable-background:accumulate;" fill="#222831" fill-opacity="1" stroke="none" marker="none" visibility="visible" display="inline" overflow="visible"></path></g></g><g id="SvgjsG5001" featurekey="nameFeature-0" transform="matrix(1.4125950336456299,0,0,1.4125950336456299,96.32725516936732,3.4049526601415003)" fill="#222831"><path d="M2.6 11.399999999999999 l6.36 0 l0 22.84 l4.6 0 l1 0.12 l0 -2.72 l5.4 -2.52 l0 10.88 l-17.36 0 l0 -28.6 z M33.84 40.44 c-2.1867 0 -4.0468 -0.37332 -5.58 -1.12 s-2.7866 -1.7734 -3.76 -3.08 s-1.6866 -2.86 -2.14 -4.66 s-0.68 -3.7667 -0.68 -5.9 s0.22668 -4.1 0.68 -5.9 s1.1666 -3.3467 2.14 -4.64 s2.2266 -2.3 3.76 -3.02 s3.3933 -1.08 5.58 -1.08 s4.0468 0.36 5.58 1.08 s2.7866 1.7267 3.76 3.02 s1.68 2.84 2.12 4.64 s0.66 3.7667 0.66 5.9 s-0.22 4.1 -0.66 5.9 s-1.1467 3.3533 -2.12 4.66 s-2.2266 2.3334 -3.76 3.08 s-3.3933 1.12 -5.58 1.12 z M33.84 34.84 c1.84 0 3.1667 -0.76 3.98 -2.28 s1.22 -3.8133 1.22 -6.88 s-0.39332 -5.32 -1.18 -6.76 s-2.1134 -2.16 -3.98 -2.16 c-1.8933 0 -3.2466 0.72 -4.06 2.16 s-1.22 3.6933 -1.22 6.76 s0.40668 5.36 1.22 6.88 s2.1533 2.28 4.02 2.28 z M69.32000000000001 39.32 c-1.12 0.45332 -2.1933 0.75328 -3.22 0.89996 s-2.1667 0.22 -3.42 0.22 c-2.2667 0 -4.2532 -0.36 -5.96 -1.08 s-3.1267 -1.7267 -4.26 -3.02 s-1.9866 -2.8333 -2.56 -4.62 s-0.86 -3.7467 -0.86 -5.88 s0.29332 -4.1068 0.88 -5.92 s1.4467 -3.3733 2.58 -4.68 s2.54 -2.3267 4.22 -3.06 s3.6 -1.1 5.76 -1.1 c1.2533 0 2.3866 0.12 3.4 0.36 s2 0.57332 2.96 1 l-1.64 5.32 c-0.53332 -0.24 -1.1266 -0.45332 -1.78 -0.64 s-1.4333 -0.28 -2.34 -0.28 c-4.7468 0 -7.12 3 -7.12 9 c0 3.0133 0.61332 5.24 1.84 6.68 s3.12 2.16 5.68 2.16 c0.85332 0 1.6066 -0.06 2.26 -0.18 s1.3 -0.3 1.94 -0.54 z M78.84 16.4 l-2.84 0 l2.6 -4.96 l8.8 0 l8.96 28.56 l-6.88 0 l-1.6 -5.72 l-1.56 0.12 l-5.56 0 l-1.36 -0.12 l-1.64 5.72 l-6.44 0 z M86.32 28.84 l-2.64 -9.52 l-2.8 9.52 l5.44 0 z M99.6 11.399999999999999 l6.36 0 l0 22.84 l4.6 0 l1 0.12 l0 -2.72 l5.4 -2.52 l0 10.88 l-17.36 0 l0 -28.6 z M121 11.48 c2.56 -0.24 5.1468 -0.36008 7.76 -0.36008 c1.36 0 2.7267 0.13332 4.1 0.4 s2.6133 0.77336 3.72 1.52 s2.0134 1.7867 2.72 3.12 s1.06 3.0533 1.06 5.16 s-0.35332 3.82 -1.06 5.14 s-1.6134 2.3533 -2.72 3.1 s-2.34 1.2534 -3.7 1.52 s-2.7067 0.4 -4.04 0.4 c-0.18668 0 -0.4 -0.0066796 -0.64 -0.02 s-0.46668 -0.03332 -0.68 -0.06 l0 8.6 l-6.52 0 l0 -28.52 z M127.52 24.96 l-0.16 0.88 c0.82668 0.10668 1.62 0.1 2.38 -0.02 s1.4267 -0.36 2 -0.72 s1.0333 -0.84668 1.38 -1.46 s0.52 -1.36 0.52 -2.24 s-0.13332 -1.62 -0.4 -2.22 s-0.62 -1.08 -1.06 -1.44 s-0.94 -0.62 -1.5 -0.78 s-1.1467 -0.24 -1.76 -0.24 l-0.56 0 l-0.84 0.08 l0 8.16 z M155.52 40.44 c-2.1867 0 -4.0468 -0.37332 -5.58 -1.12 s-2.7866 -1.7734 -3.76 -3.08 s-1.6866 -2.86 -2.14 -4.66 s-0.68 -3.7667 -0.68 -5.9 s0.22668 -4.1 0.68 -5.9 s1.1666 -3.3467 2.14 -4.64 s2.2266 -2.3 3.76 -3.02 s3.3933 -1.08 5.58 -1.08 s4.0468 0.36 5.58 1.08 s2.7866 1.7267 3.76 3.02 s1.68 2.84 2.12 4.64 s0.66 3.7667 0.66 5.9 s-0.22 4.1 -0.66 5.9 s-1.1467 3.3533 -2.12 4.66 s-2.2266 2.3334 -3.76 3.08 s-3.3933 1.12 -5.58 1.12 z M155.52 34.84 c1.84 0 3.1667 -0.76 3.98 -2.28 s1.22 -3.8133 1.22 -6.88 s-0.39332 -5.32 -1.18 -6.76 s-2.1134 -2.16 -3.98 -2.16 c-1.8933 0 -3.2466 0.72 -4.06 2.16 s-1.22 3.6933 -1.22 6.76 s0.40668 5.36 1.22 6.88 s2.1533 2.28 4.02 2.28 z M171.92000000000002 11.64 c1.28 -0.16 2.4533 -0.28668 3.52 -0.38 s2.2 -0.14 3.4 -0.14 c1.4667 0 2.9267 0.14 4.38 0.42 s2.7533 0.76668 3.9 1.46 s2.0734 1.6266 2.78 2.8 s1.06 2.6666 1.06 4.48 c0 1.04 -0.14 1.9733 -0.42 2.8 s-0.62668 1.5534 -1.04 2.18 s-0.87332 1.1734 -1.38 1.64 s-1 0.86 -1.48 1.18 l-0.2 0.12 l0.54 0.88 l1.32 2.2 l1.7 2.84 l1.7 2.82 l1.28 2.18 l0.5 0.84 l-7.32 0 l-7.56 -13.16 l0 13.2 l-6.68 0 l0 -28.36 z M178.60000000000002 26.560000000000002 l1.4 -0.64 c0.34668 -0.16 0.76 -0.36 1.24 -0.6 s0.94668 -0.55332 1.4 -0.94 s0.84 -0.84668 1.16 -1.38 s0.48 -1.1866 0.48 -1.96 c0 -0.82668 -0.12 -1.5134 -0.36 -2.06 s-0.57332 -0.98668 -1 -1.32 s-0.92668 -0.57332 -1.5 -0.72 s-1.1933 -0.22 -1.86 -0.22 l-0.46 0 l-0.5 0.04 l0 9.8 z M200.44 17.08 l-6.84 0 l0 -5.68 l20.6 0 l-0.92 2.8 l-0.92 2.88 l-5.36 0 l0.12 1.12 l0 21.8 l-6.68 0 l0 -22.92 z"></path></g></svg>