<svg xmlns="http://www.w3.org/2000/svg" xmlns:xlink="http://www.w3.org/1999/xlink" version="1.1" id="Layer_1" x="0px" y="0px" enable-background="new 0 0 660 438" xml:space="preserve" viewBox="0.91 0.91 660.19 438.19">
<path fill="#FFFFFF" opacity="1.000000" stroke="none" d=" M661.000000,140.000000   C661.000000,238.666656 660.977112,336.833344 661.095581,434.999847   C661.099731,438.423859 660.423645,439.096008 657.000000,439.094360   C439.666748,438.989594 222.333435,438.989624 5.000159,439.094360   C1.576849,439.096008 0.902455,438.424072 0.905098,435.000061   C1.015745,291.666809 1.015733,148.333466 0.905137,5.000239   C0.902496,1.576814 1.575969,0.903977 4.999878,0.905628   C222.333145,1.010409 439.666443,1.010400 656.999695,0.905684   C660.422729,0.904034 661.109253,1.573918 661.097961,5.000076   C660.950500,49.833004 661.000000,94.666588 661.000000,140.000000  z"/>
<path fill="#263357" opacity="1.000000" stroke="none" d=" M228.000000,349.999481   C199.670746,349.999420 171.841476,349.999908 144.012222,349.998138   C141.916122,349.998016 139.483871,350.595367 139.951767,346.954102   C140.141159,345.480133 140.597687,344.872437 142.045273,344.941772   C143.042725,344.989563 144.044495,344.944458 145.044342,344.944458   C268.692902,344.944092 392.341492,344.944061 515.990051,344.945374   C517.156250,344.945404 518.322754,344.951538 519.488647,344.976807   C521.310486,345.016327 520.976624,346.391602 520.984314,347.493652   C520.992065,348.608246 521.275574,349.959473 519.456848,349.974274   C518.123901,349.985107 516.791016,349.998474 515.458069,349.998474   C419.805389,349.999603 324.152679,349.999481 228.000000,349.999481  z"/>
<path fill="#2D395C" opacity="1.000000" stroke="none" d=" M479.336395,325.696045   C479.916534,327.597412 482.443787,329.640259 479.942444,330.665466   C477.173767,331.800232 473.597961,332.337616 471.340088,329.182861   C469.123108,326.085205 467.222351,322.759766 465.212341,319.515991   C463.504486,316.759796 456.731537,314.891479 453.915985,316.335785   C452.692505,316.963409 453.070618,317.995239 453.044159,318.883209   C452.969757,321.377289 452.862549,323.886719 453.052795,326.368286   C453.295868,329.539337 452.647461,331.275696 448.842010,331.313812   C445.022369,331.352081 444.378998,329.492004 444.430237,326.407349   C444.507599,321.748932 444.604309,317.081451 444.397369,312.430969   C444.252838,309.183136 445.490082,307.890167 448.700256,307.957184   C454.023254,308.068329 459.350342,307.982239 464.675690,307.986237   C468.421295,307.989044 471.522949,306.694458 471.632294,302.566010   C471.740265,298.487671 468.671234,296.776855 465.022339,296.633240   C459.538788,296.417328 454.037628,296.440002 448.550812,296.598511   C445.449341,296.688141 444.441650,295.235474 444.441925,292.438843   C444.442200,289.684814 445.322174,288.015839 448.483765,288.117340   C454.963898,288.325470 461.486023,287.981445 467.921814,288.592102   C473.770782,289.147095 478.302612,292.356232 479.668396,298.421021   C480.982971,304.258545 480.276123,309.761932 474.495056,313.213776   C472.320099,314.512451 472.546722,315.758514 473.838654,317.529358   C475.698456,320.078613 477.379974,322.757904 479.336395,325.696045  z"/>
<path fill="#2A375A" opacity="1.000000" stroke="none" d=" M309.946960,328.392456   C309.706024,331.976562 307.253082,331.138519 305.431885,331.147919   C294.447144,331.204590 283.461212,331.237762 272.477631,331.109955   C270.823242,331.090729 267.744171,332.398865 267.897583,329.182434   C268.029968,326.406677 268.603149,322.998535 272.794739,322.994904   C280.118103,322.988556 287.441498,322.991882 294.764862,322.991211   C295.736572,322.991119 296.708282,322.991211 298.298828,322.991211   C295.213135,315.611176 292.320709,308.693329 288.900787,300.513947   C286.283783,306.591522 283.967621,311.408142 282.146423,316.405121   C281.005249,319.536224 279.110443,320.239227 276.097015,320.064240   C272.651764,319.864197 271.626617,318.558380 273.040375,315.342468   C276.505463,307.460449 279.946045,299.567261 283.326141,291.648560   C284.321411,289.316864 285.545349,287.939026 288.459290,288.049835   C291.214600,288.154694 293.097321,288.575623 294.274963,291.445282   C298.421661,301.549835 302.787384,311.564575 307.082825,321.607910   C307.995850,323.742676 308.962982,325.854340 309.946960,328.392456  z"/>
<path fill="#3A4667" opacity="1.000000" stroke="none" d=" M285.949951,134.011169   C277.954498,143.710983 274.267456,154.695328 273.251251,166.709457   C273.122742,168.228851 273.867889,170.276245 271.019714,170.045166   C268.136414,169.811203 269.274628,167.842560 269.355042,166.356613   C270.842377,138.874832 290.926727,115.532593 317.933136,109.881721   C345.067108,104.204170 372.733948,117.561279 385.171204,142.113693   C389.061310,149.793137 391.221344,157.849243 391.815582,166.352310   C391.901459,167.581085 393.193298,169.842712 390.170502,170.065079   C387.328369,170.274155 387.989655,168.204834 387.855499,166.744629   C385.031494,136.002289 363.458679,114.516197 332.950897,112.852295   C314.005920,111.819046 298.415588,119.268379 285.949951,134.011169  z"/>
<path fill="#323E60" opacity="1.000000" stroke="none" d=" M352.972839,318.058472   C352.972992,316.243744 353.059082,314.906708 352.956573,313.584229   C352.688385,310.124390 354.183441,308.907837 357.654144,309.061340   C362.796783,309.288788 367.960144,309.107361 373.113251,309.016724   C376.790588,308.952026 379.204773,307.209045 379.258270,303.343597   C379.311035,299.528717 377.598114,296.917084 373.402435,296.815979   C367.921204,296.683868 362.437347,296.589233 356.955048,296.607208   C354.423248,296.615509 352.838654,296.102600 352.913605,293.038391   C352.983185,290.194092 353.395844,288.050751 356.895355,288.123596   C362.875549,288.248138 368.879669,288.030762 374.832001,288.493591   C383.064026,289.133698 388.322510,295.437622 387.992126,303.611542   C387.666901,311.658264 382.112762,316.984528 373.804382,317.215210   C373.472015,317.224426 373.139099,317.210693 372.806641,317.217865   C369.320709,317.293091 364.937164,316.111084 362.589203,317.784515   C359.992035,319.635559 361.730103,324.295868 361.634705,327.719879   C361.551331,330.710968 360.004089,331.255798 357.472595,331.261993   C354.794922,331.268524 352.858856,330.802765 352.957214,327.522461   C353.046875,324.531769 352.974060,321.536194 352.972839,318.058472  z"/>
<path fill="#E9E9E9" opacity="1.000000" stroke="none" d=" M460.000000,4.002703   C524.943237,4.002720 589.386536,4.002720 653.829773,4.002720   C653.829590,4.232778 653.829407,4.462835 653.829285,4.692893   C438.606964,4.692893 223.384659,4.692893 8.162348,4.692893   C8.162015,4.462824 8.161681,4.232755 8.161348,4.002687   C158.607559,4.002687 309.053772,4.002687 460.000000,4.002703  z"/>
<path fill="#3A4667" opacity="1.000000" stroke="none" d=" M298.643677,142.641983   C310.614532,129.119965 328.088257,124.187691 344.996765,130.541870   C361.267639,136.656433 370.622070,148.806549 372.164276,166.415085   C372.264191,167.555725 374.206940,169.866211 370.873291,170.046066   C367.912537,170.205780 368.313171,167.865326 368.168884,166.250534   C367.253967,156.010849 362.773438,147.759674 355.005554,141.050766   C339.993622,128.085342 316.770996,129.143555 303.262329,143.596863   C297.318573,149.956268 293.649597,157.347824 292.864655,166.134964   C292.734436,167.592865 293.526550,170.228989 290.410095,170.030197   C286.903442,169.806519 288.845795,167.334473 288.939667,165.948517   C289.529236,157.242188 292.873718,149.616348 298.643677,142.641983  z"/>
<path fill="#303C5F" opacity="1.000000" stroke="none" d=" M256.833984,209.729675   C256.525543,206.873260 258.468170,207.840836 259.484650,207.835022   C271.610718,207.765717 283.737701,207.836380 295.863525,207.747345   C298.021942,207.731506 299.293121,208.050491 299.339111,210.576324   C299.378174,212.718277 299.776031,214.862442 300.125336,216.987503   C300.454529,218.990036 299.663757,219.608200 297.703186,219.598145   C285.909241,219.537582 274.114624,219.529037 262.320862,219.604630   C260.435242,219.616699 259.616913,218.673386 259.119476,217.161224   C258.347809,214.815536 257.642975,212.447876 256.833984,209.729675  z"/>
<path fill="#313D5F" opacity="1.000000" stroke="none" d=" M385.000061,207.787216   C390.831757,207.787140 396.168701,207.926895 401.493500,207.732590   C404.525024,207.621979 404.980255,208.746323 403.919434,211.228226   C403.659393,211.836624 403.468018,212.484680 403.327820,213.132401   C402.295563,217.901306 400.056610,220.107925 394.497772,219.753357   C384.541016,219.118317 374.511230,219.426758 364.519318,219.657867   C361.217468,219.734222 360.673492,218.710007 361.008911,215.686462   C361.883606,207.801849 361.749786,207.786987 369.504364,207.787033   C374.502991,207.787064 379.501648,207.787109 385.000061,207.787216  z"/>
<path fill="#323E60" opacity="1.000000" stroke="none" d=" M518.488037,296.852936   C507.579651,296.879974 507.579742,296.879974 507.579559,307.104767   C507.579468,313.771362 507.552643,320.438080 507.591003,327.104462   C507.607330,329.939423 507.047852,331.964508 503.491180,331.927887   C500.168091,331.893677 498.682495,330.776154 498.727997,327.227325   C498.875214,315.729340 498.880707,304.226990 498.725220,292.729218   C498.677063,289.168396 500.122681,287.980347 503.473053,288.094910   C507.634827,288.237213 511.805115,288.122528 515.971741,288.131592   C517.787659,288.135529 520.233765,287.760406 520.699219,289.871155   C521.215820,292.213898 522.239441,295.231476 518.488037,296.852936  z"/>
<path fill="#2D3A5C" opacity="1.000000" stroke="none" d=" M385.999878,191.984299   C392.141266,191.984451 397.783783,192.047333 403.423706,191.954742   C405.770996,191.916199 407.378448,192.199036 406.607208,195.177383   C406.364441,196.114914 406.506683,197.158340 406.512634,198.153046   C406.539337,202.634354 404.693390,204.194763 399.912354,203.997345   C388.979919,203.545929 378.011902,203.681885 367.067322,203.948730   C363.253204,204.041718 361.875427,202.852783 362.436951,199.188477   C362.611816,198.047287 362.895599,196.859375 362.746429,195.744095   C362.333405,192.656082 363.499481,191.780228 366.587616,191.906998   C372.882141,192.165421 379.194763,191.984329 385.999878,191.984299  z"/>
<path fill="#2D3A5C" opacity="1.000000" stroke="none" d=" M259.364166,203.854553   C256.129211,204.234146 255.225510,202.936996 254.925552,200.232666   C254.009293,191.971359 253.892410,191.984314 262.047272,191.984299   C272.681976,191.984299 283.321503,192.165009 293.948730,191.882935   C297.502686,191.788620 298.624115,193.077713 298.542145,196.251328   C298.512177,197.413269 298.341797,198.630798 298.612213,199.730316   C299.476532,203.244843 297.920624,203.953491 294.715149,203.912781   C283.085297,203.765106 271.452454,203.854630 259.364166,203.854553  z"/>
<path fill="#323E60" opacity="1.000000" stroke="none" d=" M370.035675,235.216522   C368.377502,235.216492 367.211395,235.216507 366.045319,235.216614   C356.896484,235.217514 356.148895,233.976334 359.528320,225.253540   C360.288666,223.291031 361.568726,223.420868 363.055603,223.420868   C374.713440,223.420853 386.371277,223.420868 398.048431,223.420868   C396.769501,231.685867 392.833221,235.216827 385.020599,235.216660   C380.189667,235.216553 375.358704,235.216629 370.035675,235.216522  z"/>
<path fill="#2D3A5C" opacity="1.000000" stroke="none" d=" M200.895874,288.491760   C219.439789,293.042542 222.395111,315.740448 210.522308,326.577240   C208.491318,328.431000 206.140808,329.662201 203.694229,330.573120   C201.897018,331.242279 198.990540,332.726410 198.152557,329.839722   C197.427597,327.342316 196.403549,324.000732 200.740372,322.512939   C206.610092,320.499207 209.046692,315.853363 209.092285,309.767426   C209.137283,303.761688 206.271164,299.560547 200.927750,297.315582   C198.512405,296.300842 197.513000,295.140717 197.769714,292.610992   C197.965607,290.680695 197.333969,288.346832 200.895874,288.491760  z"/>
<path fill="#313D5F" opacity="1.000000" stroke="none" d=" M425.803589,302.648743   C424.256866,299.875122 422.266602,298.211853 419.586029,297.452118   C415.634155,296.332062 415.377319,293.042847 416.410522,290.277954   C417.640594,286.986267 420.584229,288.720215 422.794373,289.567902   C431.901184,293.060791 436.709290,301.346893 436.029205,312.171295   C435.490112,320.751434 429.204285,328.852417 421.405975,330.835724   C419.599304,331.295197 417.061981,332.417175 416.410400,329.601868   C415.860229,327.224701 415.179962,324.412262 418.561218,322.804962   C427.622742,318.497620 429.811249,312.423767 425.803589,302.648743  z"/>
<path fill="#313D5F" opacity="1.000000" stroke="none" d=" M401.369904,327.691376   C388.351288,316.669983 390.541656,296.470490 405.248444,289.927582   C407.581970,288.889496 410.821777,286.634949 412.493958,290.285767   C413.891296,293.336395 412.883698,296.246918 408.974548,297.630005   C403.152069,299.690094 401.156158,304.529907 401.264771,310.260986   C401.365601,315.581390 403.523743,319.855286 408.669220,322.176422   C409.852570,322.710236 411.189484,322.974670 412.022369,324.174438   C413.424683,326.194397 413.248535,328.509399 412.316986,330.354462   C411.261108,332.445770 409.042572,331.383911 407.419769,330.771393   C405.422180,330.017456 403.565186,328.890991 401.369904,327.691376  z"/>
<path fill="#313D5F" opacity="1.000000" stroke="none" d=" M183.085968,292.023193   C184.680008,290.398590 186.475723,289.882996 188.201111,289.392120   C190.108719,288.849396 192.882919,287.104095 193.692001,290.022614   C194.356628,292.420105 195.538696,295.728821 191.023666,297.266754   C185.260651,299.229797 182.625336,303.931610 182.760086,310.101196   C182.893082,316.190826 185.370682,320.623779 191.417114,322.544708   C195.465958,323.831085 194.240677,327.209412 193.757721,329.623596   C193.213791,332.342590 190.672928,331.371643 188.796997,330.746063   C181.435608,328.291260 176.746521,323.217102 174.938965,315.739563   C172.670456,306.355194 174.975281,298.329498 183.085968,292.023193  z"/>
<path fill="#303C5F" opacity="1.000000" stroke="none" d=" M223.574249,311.719086   C223.216660,302.071106 226.633560,294.743713 234.817780,290.101440   C236.869446,288.937683 239.978882,287.275208 241.424683,289.984406   C242.814423,292.588531 242.834274,295.613770 238.913132,297.789337   C229.347275,303.096741 229.540054,316.905640 239.156509,322.225494   C242.798508,324.240265 242.664719,327.246613 241.660233,329.816620   C240.467377,332.868591 237.776566,331.038971 235.708344,330.115784   C227.935776,326.646240 224.247849,320.431488 223.574249,311.719086  z"/>
<path fill="#2D395C" opacity="1.000000" stroke="none" d=" M271.095886,223.147003   C279.908997,223.147018 288.246552,223.391373 296.558319,223.034378   C300.207489,222.877625 301.621704,224.109085 302.052002,227.473190   C302.360107,229.881943 303.033325,232.244003 303.626251,235.012512   C292.621368,235.012512 281.815460,234.965790 271.010559,235.049637   C268.684113,235.067657 267.901337,233.482407 266.969177,231.949722   C265.347931,229.283951 263.790253,226.579498 261.767303,223.147003   C265.166687,223.147003 267.888275,223.147003 271.095886,223.147003  z"/>
<path fill="#334061" opacity="1.000000" stroke="none" d=" M148.585663,302.020630   C148.585464,310.682709 148.515213,318.849274 148.623108,327.013489   C148.661133,329.889343 147.829849,331.326782 144.669296,331.284760   C141.746765,331.245911 139.896286,330.740448 139.929703,327.211182   C140.040146,315.547028 140.006577,303.881012 139.946732,292.216125   C139.931198,289.189636 141.341431,288.071259 144.230316,288.095978   C146.955383,288.119293 148.740021,288.816254 148.610947,292.026489   C148.483856,295.187592 148.584839,298.357910 148.585663,302.020630  z"/>
<path fill="#334061" opacity="1.000000" stroke="none" d=" M325.030182,314.995148   C325.029236,319.474731 324.899902,323.461060 325.067444,327.434906   C325.204285,330.680206 323.515686,331.205933 320.768402,331.292145   C317.825317,331.384521 316.413940,330.358337 316.419861,327.388062   C316.436340,319.094452 316.419739,310.800812 316.417480,302.507172   C316.416595,299.189697 316.466675,295.871368 316.405975,292.555023   C316.350159,289.506775 317.496460,287.991333 320.810913,288.064087   C324.022461,288.134674 325.155945,289.411255 325.082764,292.602509   C324.915527,299.897064 325.030090,307.198120 325.030182,314.995148  z"/>
<path fill="#2E3B5D" opacity="1.000000" stroke="none" d=" M382.143524,246.176300   C378.766815,250.147705 374.818939,251.247421 370.017883,250.943817   C364.245056,250.578751 358.431488,250.857498 352.545654,250.857498   C352.545654,250.244019 352.424103,249.757858 352.563385,249.363861   C356.233246,238.980576 356.237885,238.982208 367.308655,238.982208   C374.077850,238.982208 380.847076,238.982208 388.178009,238.982208   C386.658295,242.052322 384.364410,243.857040 382.143524,246.176300  z"/>
<path fill="#2E3B5D" opacity="1.000000" stroke="none" d=" M279.201050,238.982208   C286.496033,238.982208 293.327148,239.157700 300.142761,238.908966   C303.607025,238.782547 305.706207,239.442123 306.324646,243.307495   C306.704742,245.683212 308.030914,247.907578 309.182404,250.836044   C301.151215,250.836044 293.586823,250.994522 286.033997,250.767532   C282.390320,250.658020 280.499817,247.352173 278.075928,245.166946   C276.256165,243.526398 274.654327,241.644089 272.106171,238.982208   C274.962921,238.982208 276.846832,238.982208 279.201050,238.982208  z"/>
<path fill="#334061" opacity="1.000000" stroke="none" d=" M332.547363,208.761658   C340.368652,207.034851 348.148132,208.158600 355.889252,207.769073   C357.723236,207.676788 358.192352,208.602005 358.011230,210.188736   C357.992493,210.352966 357.996002,210.519806 357.990479,210.685471   C357.694946,219.501556 357.606659,219.585831 348.666626,219.585846   C344.851990,219.585861 341.008575,219.293457 337.230438,219.664825   C333.128693,220.067978 331.888062,218.457657 332.376587,214.639832   C332.606384,212.843658 332.434998,210.996155 332.547363,208.761658  z"/>
<path fill="#334061" opacity="1.000000" stroke="none" d=" M304.669983,207.799896   C311.612183,207.781464 318.115021,207.910095 324.608459,207.719696   C327.521057,207.634293 329.062927,208.241180 328.623596,211.518188   C328.404144,213.155258 328.477478,214.854355 328.608826,216.510300   C328.803986,218.970612 327.675537,219.663086 325.366394,219.621017   C319.369293,219.511734 313.367767,219.515793 307.370453,219.618500   C305.084503,219.657639 303.655426,218.851440 304.043976,216.528671   C304.532959,213.605133 301.277832,210.637772 304.669983,207.799896  z"/>
<path fill="#313D5F" opacity="1.000000" stroke="none" d=" M348.950806,203.866577   C344.308685,203.866486 340.152771,203.758301 336.006073,203.907181   C333.550262,203.995361 332.504883,203.342575 332.358978,200.637360   C331.891479,191.969055 331.773682,191.975388 340.398254,191.975403   C345.380707,191.975403 350.369415,192.125259 355.343079,191.916138   C358.077911,191.801147 358.983429,192.484467 358.948700,195.404205   C358.847992,203.864838 358.997620,203.866623 348.950806,203.866577  z"/>
<path fill="#313D5F" opacity="1.000000" stroke="none" d=" M318.950745,203.866577   C314.462769,203.866547 310.448059,203.641159 306.472260,203.937790   C303.290680,204.175140 302.533966,202.800003 302.385132,199.989594   C301.960571,191.971176 301.879730,191.975418 309.756378,191.975403   C314.753784,191.975388 319.761200,192.167038 324.744904,191.905777   C327.879486,191.741455 328.662140,192.793289 328.652405,195.833374   C328.626648,203.866135 328.779602,203.866623 318.950745,203.866577  z"/>
<path fill="#364263" opacity="1.000000" stroke="none" d=" M333.839478,235.158005   C331.336426,231.914093 332.655304,228.391586 332.525452,225.032120   C332.453033,223.159271 334.274872,223.417679 335.564514,223.413345   C341.386627,223.393845 347.211945,223.517120 353.029602,223.355240   C355.795258,223.278275 356.108856,224.490829 355.456573,226.665161   C355.408813,226.824356 355.362885,226.985306 355.333099,227.148544   C353.858887,235.228897 353.859100,235.230515 345.745453,235.228119   C341.919495,235.226990 338.093536,235.218323 333.839478,235.158005  z"/>
<path fill="#334061" opacity="1.000000" stroke="none" d=" M328.585693,230.792374   C328.976746,233.997452 328.376007,235.578079 324.976013,235.293610   C321.192932,234.977097 317.323975,234.880051 313.563446,235.309540   C309.113495,235.817764 307.084595,234.462601 306.271118,229.849991   C305.125366,223.353531 304.764313,223.416672 311.379150,223.414368   C314.857452,223.413147 318.336090,223.383850 321.814026,223.420319   C329.647034,223.502457 328.462311,222.456955 328.585693,230.792374  z"/>
<path fill="#3A4667" opacity="1.000000" stroke="none" d=" M346.755066,167.604523   C344.869598,160.010788 340.640839,155.097443 333.079468,153.949646   C326.250122,152.912964 320.752106,155.424530 316.822113,161.196869   C315.379303,163.316071 314.779877,165.748795 314.405212,168.195511   C314.112305,170.108292 312.972839,170.159698 311.576447,170.014008   C309.665527,169.814651 310.368225,168.334778 310.422455,167.338379   C310.933716,157.942169 320.382690,149.725983 330.576172,149.755264   C340.605591,149.784073 350.225555,158.187485 350.826172,167.468155   C350.886902,168.406403 351.209564,169.603455 349.851929,169.905380   C348.303314,170.249802 346.766205,170.316437 346.755066,167.604523  z"/>
<path fill="#323E60" opacity="1.000000" stroke="none" d=" M335.405731,250.867950   C329.715759,248.543015 333.068329,244.050934 332.649536,240.646072   C332.305725,237.850845 335.351013,239.090454 336.871155,239.037354   C341.810028,238.864853 346.758728,238.972824 351.729889,238.972824   C351.729889,239.590942 351.801270,239.938766 351.719513,240.245819   C348.889740,250.871765 348.887695,250.871216 335.405731,250.867950  z"/>
<path fill="#2E3B5D" opacity="1.000000" stroke="none" d=" M317.098236,238.982208   C318.732269,238.982208 319.889038,238.982208 321.045807,238.982208   C329.177948,238.982239 329.057068,238.980301 328.924866,247.202484   C328.880554,249.958649 328.134827,251.249100 325.275818,250.869705   C324.626251,250.783508 323.955475,250.856506 323.294464,250.857620   C312.310364,250.876251 312.240753,250.819244 309.391937,238.982208   C311.877960,238.982208 314.249481,238.982208 317.098236,238.982208  z"/>
<path fill="#334061" opacity="1.000000" stroke="none" d=" M255.111298,290.794617   C258.359741,292.921875 260.918671,295.243195 262.287231,298.572479   C262.975311,300.246338 265.359314,302.447083 262.884979,303.686584   C260.637695,304.812347 257.270599,305.460052 255.274292,302.603027   C253.393326,299.911041 251.101257,297.982330 248.050522,296.832489   C244.696823,295.568481 245.059921,292.709930 245.773087,290.202515   C246.731995,286.831085 249.219482,288.827545 251.093094,289.231110   C252.363373,289.504761 253.551834,290.158173 255.111298,290.794617  z"/>
<path fill="#334061" opacity="1.000000" stroke="none" d=" M248.825470,331.636230   C245.498291,331.977692 245.467392,329.853668 245.432129,327.805847   C245.397079,325.771118 245.442505,323.711884 248.046326,323.147278   C251.136063,322.477325 253.345627,320.701172 254.862579,317.950073   C256.814026,314.410980 260.393219,315.147034 262.705078,316.333313   C265.669037,317.854279 263.095215,320.497162 262.057190,322.230713   C259.140381,327.101807 254.849655,330.317108 248.825470,331.636230  z"/>
<path fill="#303C5F" opacity="1.000000" stroke="none" d=" M344.643860,262.316589   C348.143127,254.806442 354.224365,253.952469 361.183502,254.739410   C363.942749,255.051422 366.766785,254.790649 370.895752,254.790649   C361.352844,260.360107 352.587738,263.903137 342.422668,265.336914   C343.307068,264.101959 343.861084,263.328339 344.643860,262.316589  z"/>
<path fill="#374364" opacity="1.000000" stroke="none" d=" M309.476654,263.421967   C302.993408,261.345428 296.922394,259.314636 290.861877,254.772736   C297.718018,254.772736 303.664734,254.780991 309.611328,254.766281   C310.911407,254.763062 311.687195,255.304031 312.325623,256.492615   C313.964050,259.542877 316.122192,262.246826 319.043091,265.006378   C315.418976,265.278534 312.667694,264.187317 309.476654,263.421967  z"/>
<path fill="#2A375A" opacity="1.000000" stroke="none" d=" M152.988434,323.719391   C157.508377,322.526337 161.803589,323.196442 166.073288,322.998535   C168.909500,322.867065 169.788010,324.621735 169.834305,327.069458   C169.880875,329.530945 169.095566,331.262329 166.193848,331.201599   C163.390091,331.142914 160.584076,331.198883 157.779099,331.189026   C151.783890,331.167938 151.152618,330.274414 152.988434,323.719391  z"/>
<path fill="#2D395C" opacity="1.000000" stroke="none" d=" M329.131470,323.694519   C333.863403,323.228302 338.348297,323.192657 342.822601,322.956696   C345.675079,322.806305 346.150177,324.316559 346.042145,326.672089   C345.942261,328.849274 346.398804,331.224304 343.027130,331.183929   C340.362305,331.152008 337.696686,331.197235 335.031403,331.197449   C328.348511,331.197937 327.977875,330.764191 329.131470,323.694519  z"/>
<path fill="#364263" opacity="1.000000" stroke="none" d=" M327.520294,188.683792   C327.509491,183.178391 327.613556,178.044113 327.464020,172.917221   C327.393066,170.484100 328.303101,169.844650 330.622498,169.845108   C332.971527,169.845581 333.845184,170.547638 333.756073,172.959564   C333.597260,177.257324 333.726410,181.565231 333.708923,185.868790   C333.688873,190.803146 332.822052,191.243912 327.520294,188.683792  z"/>
<path fill="#3A4667" opacity="1.000000" stroke="none" d=" M344.410065,255.124298   C342.611481,259.622284 339.832428,263.217316 335.310181,265.119263   C334.590149,265.422089 333.222687,265.897583 333.138733,265.746460   C331.621887,263.016510 332.681122,260.016937 332.394836,257.134949   C332.186188,255.034225 333.491272,254.694458 335.200409,254.744431   C338.175751,254.831421 341.153259,254.843384 344.410065,255.124298  z"/>
<path fill="#3A4667" opacity="1.000000" stroke="none" d=" M319.276855,259.769653   C318.260559,258.101105 316.644806,257.185638 316.706635,255.230835   C318.187561,254.273453 319.881104,254.799332 321.473175,254.783218   C328.773132,254.709396 328.807007,254.746460 328.585510,262.148895   C328.549530,263.351593 329.350250,264.994873 327.762970,265.683197   C326.371521,266.286621 325.253662,265.068176 324.263031,264.317963   C322.565338,263.032166 321.055634,261.498169 319.276855,259.769653  z"/>
<path fill="#374364" opacity="1.000000" stroke="none" d=" M486.059875,289.072388   C493.185059,287.154938 495.221710,288.161835 495.281219,292.918396   C495.319305,295.963928 494.115997,297.158905 491.131927,296.906555   C488.447906,296.679565 485.048187,297.738251 485.124634,293.165253   C485.146454,291.860779 484.843933,290.491486 486.059875,289.072388  z"/>
</svg>