
<svg version="1.0" xmlns="http://www.w3.org/2000/svg" width="278.85" height="59.86458678348202" viewBox="0 0 409.90510948905114 88" class="looka-1j8o68f"><defs id="SvgjsDefs4163"></defs><g id="SvgjsG4164" featurekey="symbolContainer" transform="matrix(1,0,0,1,0,0)" fill="#222831"><rect xmlns="http://www.w3.org/2000/svg" width="91" height="88" rx="10" ry="10"></rect></g><g id="SvgjsG4165" featurekey="symbolFeature-0" transform="matrix(0.5608659386634827,0,0,0.5608659386634827,17.924795997136496,17.195670302541444)" fill="#eeeeee"><metadata xmlns="http://www.w3.org/2000/svg"><!--?xpacket begin="&;" id="W5M0MpCehiHzreSzNTczkc9d"?--><x:xmpmeta xmlns:x="adobe:ns:meta/" x:xmptk="Adobe XMP Core 5.6-c014 79.156821, 2014/08/29-03:07:50        "></x:xmpmeta><!--?xpacket end="w"?--></metadata><path xmlns="http://www.w3.org/2000/svg" d="M85.2,87.7c0.1-0.3,0.2-0.6,0.2-1V48.2c0-1.6-1.3-2.8-2.8-2.8H15.4c-1.6,0-2.8,1.3-2.8,2.8v38.5c0,0.4,0.1,0.7,0.2,1H3.7  v0.7c0,1.5,1.3,2.8,2.8,2.8H92c1.6,0,2.8-1.3,2.8-2.8v-0.7H85.2z M49.5,48c0.4,0,0.8,0.3,0.8,0.8c0,0.4-0.3,0.8-0.8,0.8  s-0.8-0.4-0.8-0.8S49,48,49.5,48z M81.2,84.9H17V51.7h64.2V84.9z"></path><path xmlns="http://www.w3.org/2000/svg" d="M49.2,7c8.6,0,16.5,2.7,23.1,7.2l1.2-1.6C66.6,7.8,58.2,5,49.2,5c-9,0-17.4,2.8-24.2,7.6l1.2,1.6C32.7,9.7,40.7,7,49.2,7z"></path><path xmlns="http://www.w3.org/2000/svg" d="M49.2,15.3c6.7,0,13,2.1,18.2,5.6l1.2-1.6c-5.5-3.8-12.2-6-19.4-6s-13.8,2.2-19.4,6l1.2,1.6C36.2,17.4,42.5,15.3,49.2,15.3z  "></path><path xmlns="http://www.w3.org/2000/svg" d="M49.2,23.7c4.9,0,9.5,1.5,13.3,4l1.2-1.6c-4.1-2.8-9.1-4.4-14.5-4.4c-5.3,0-10.3,1.6-14.5,4.4l1.2,1.6  C39.7,25.1,44.3,23.7,49.2,23.7z"></path><path xmlns="http://www.w3.org/2000/svg" d="M49.2,32c3.1,0,5.9,0.9,8.4,2.4l1.2-1.6C56,31,52.7,30,49.2,30c-3.5,0-6.8,1-9.5,2.8l1.2,1.6C43.3,32.9,46.1,32,49.2,32z"></path><path xmlns="http://www.w3.org/2000/svg" d="M49.2,40.3c1.3,0,2.4,0.3,3.5,0.9l1.2-1.6c-1.4-0.8-2.9-1.2-4.6-1.2c-1.7,0-3.3,0.5-4.6,1.2l1.2,1.6  C46.8,40.6,48,40.3,49.2,40.3z"></path></g><g id="SvgjsG4166" featurekey="nameFeature-0" transform="matrix(1.1690593957901,0,0,1.1690593957901,107.21224790254854,15.324992609303068)" fill="#222831"><path d="M7.68 10 q0.56 0 0.98 0.42 t0.42 0.98 l0 26.8 q0 0.56 -0.42 0.98 t-0.98 0.42 l-3.04 0 q-0.56 0 -0.98 -0.42 t-0.42 -0.98 l0 -26.8 q0 -0.56 0.42 -0.98 t0.98 -0.42 l3.04 0 z M22.28 33.88 q0.6 0 1 0.42 t0.4 0.98 l0 2.92 q0 0.56 -0.4 0.98 t-1 0.42 l-9.32 0 q-0.6 0 -1 -0.42 t-0.4 -0.98 l0 -2.92 q0 -0.56 0.4 -0.98 t1 -0.42 l9.32 0 z M39.16 10.32 q0.48 0.4 0.48 1.08 l0 3 q0 0.52 -0.3 0.9 t-0.82 0.5 q-2.56 0.52 -4.36 2.44 q-2.44 2.56 -2.44 6.66 t2.44 6.7 q1.8 1.88 4.36 2.4 q0.52 0.12 0.82 0.5 t0.3 0.9 l0 3 q0 0.64 -0.48 1.08 q-0.44 0.32 -0.92 0.32 l-0.24 0 q-4.64 -0.76 -7.96 -4.2 q-4.16 -4.28 -4.16 -10.66 t4.16 -10.74 q3.24 -3.36 7.96 -4.16 q0.64 -0.12 1.16 0.28 z M51.72 14.2 q4.16 4.36 4.16 10.74 t-4.16 10.66 q-3.32 3.44 -7.96 4.2 l-0.24 0 q-0.48 0 -0.92 -0.32 q-0.48 -0.44 -0.48 -1.08 l0 -3 q0 -0.52 0.3 -0.9 t0.82 -0.5 q2.56 -0.52 4.36 -2.4 q2.44 -2.6 2.44 -6.7 t-2.44 -6.66 q-1.8 -1.92 -4.36 -2.44 q-0.52 -0.12 -0.82 -0.5 t-0.3 -0.9 l0 -3 q0 -0.68 0.5 -1.08 t1.14 -0.28 q4.72 0.8 7.96 4.16 z M75.44 15.719999999999999 q-0.52 -0.08 -0.86 -0.48 t-0.34 -0.92 l0 -2.92 q0 -0.68 0.48 -1.08 t1.12 -0.32 q3.44 0.56 6.12 2.44 q3.48 2.52 4.92 6.68 q0.24 0.68 -0.16 1.28 t-1.16 0.6 l-3.2 0 q-0.44 0 -0.8 -0.22 t-0.52 -0.62 q-0.88 -2.08 -2.68 -3.32 q-1.4 -0.88 -2.92 -1.12 z M85.56 29 q0.76 0 1.16 0.6 t0.16 1.28 q-1.44 4.16 -4.92 6.68 q-2.68 1.88 -6.12 2.44 l-0.2 0 q-0.56 0 -0.92 -0.36 q-0.48 -0.36 -0.48 -1.04 l0 -2.92 q0 -0.52 0.32 -0.92 t0.84 -0.48 q1.68 -0.24 2.96 -1.12 q1.8 -1.24 2.68 -3.32 q0.16 -0.4 0.52 -0.62 t0.8 -0.22 l3.2 0 z M71.24 10.48 q0.52 0.4 0.52 1.08 l0 3.12 q0 0.44 -0.3 0.82 t-0.74 0.54 q-0.56 0.12 -0.88 0.28 q-1.6 0.72 -2.72 1.96 q-2.28 2.56 -2.28 6.7 t2.28 6.74 q1.4 1.6 3.6 2.24 q0.44 0.12 0.74 0.5 t0.3 0.82 l0 3.16 q0 0.68 -0.52 1.08 q-0.36 0.32 -0.92 0.32 l-0.28 0 q-4.28 -0.92 -7.24 -4.16 q-3.8 -4.28 -3.8 -10.68 t3.8 -10.68 q2.96 -3.28 7.24 -4.12 q0.64 -0.16 1.2 0.28 z M117.8 37.72 q0.28 0.64 -0.14 1.3 t-1.14 0.66 l-26.64 0 q-0.36 0 -0.68 -0.18 t-0.48 -0.46 q-0.44 -0.64 -0.12 -1.32 l1.24 -2.92 q0.16 -0.4 0.52 -0.64 t0.76 -0.24 l18.64 0 l-6.56 -15.68 l-5.36 12.8 q-0.16 0.4 -0.5 0.62 t-0.78 0.22 l-3.36 0 q-0.76 0 -1.2 -0.64 q-0.16 -0.28 -0.2 -0.64 t0.08 -0.68 l8.12 -19.04 q0.16 -0.4 0.5 -0.64 t0.78 -0.24 l3.84 0 q0.44 0 0.78 0.24 t0.5 0.64 z M125.79999999999998 10 q0.56 0 0.98 0.42 t0.42 0.98 l0 26.8 q0 0.56 -0.42 0.98 t-0.98 0.42 l-3.04 0 q-0.56 0 -0.98 -0.42 t-0.42 -0.98 l0 -26.8 q0 -0.56 0.42 -0.98 t0.98 -0.42 l3.04 0 z M140.39999999999998 33.88 q0.6 0 1 0.42 t0.4 0.98 l0 2.92 q0 0.56 -0.4 0.98 t-1 0.42 l-9.32 0 q-0.6 0 -1 -0.42 t-0.4 -0.98 l0 -2.92 q0 -0.56 0.4 -0.98 t1 -0.42 l9.32 0 z M159.16 10 q4.76 0 7.68 2.74 t2.92 7.3 t-2.88 7.28 t-7.72 2.72 l-7.64 0 l0 8.16 q0 0.56 -0.42 0.98 t-0.98 0.42 l-3.04 0 q-0.56 0 -0.98 -0.42 t-0.42 -0.98 l0 -12.4 q0 -0.56 0.42 -0.98 t0.98 -0.42 l11.84 0 q2.68 0 3.84 -1.16 q1.16 -1.04 1.16 -3.16 t-1.2 -3.26 t-3.8 -1.14 l-11.84 0 q-0.56 0 -0.98 -0.42 t-0.42 -0.98 l0 -2.88 q0 -0.56 0.42 -0.98 t0.98 -0.42 l12.08 0 z M185.44 10.32 q0.48 0.4 0.48 1.08 l0 3 q0 0.52 -0.3 0.9 t-0.82 0.5 q-2.56 0.52 -4.36 2.44 q-2.44 2.56 -2.44 6.66 t2.44 6.7 q1.8 1.88 4.36 2.4 q0.52 0.12 0.82 0.5 t0.3 0.9 l0 3 q0 0.64 -0.48 1.08 q-0.44 0.32 -0.92 0.32 l-0.24 0 q-4.64 -0.76 -7.96 -4.2 q-4.16 -4.28 -4.16 -10.66 t4.16 -10.74 q3.24 -3.36 7.96 -4.16 q0.64 -0.12 1.16 0.28 z M198 14.2 q4.16 4.36 4.16 10.74 t-4.16 10.66 q-3.32 3.44 -7.96 4.2 l-0.24 0 q-0.48 0 -0.92 -0.32 q-0.48 -0.44 -0.48 -1.08 l0 -3 q0 -0.52 0.3 -0.9 t0.82 -0.5 q2.56 -0.52 4.36 -2.4 q2.44 -2.6 2.44 -6.7 t-2.44 -6.66 q-1.8 -1.92 -4.36 -2.44 q-0.52 -0.12 -0.82 -0.5 t-0.3 -0.9 l0 -3 q0 -0.68 0.5 -1.08 t1.14 -0.28 q4.72 0.8 7.96 4.16 z M225.92 28.2 l6.04 9.24 q0.44 0.72 0.04 1.44 q-0.16 0.32 -0.5 0.52 t-0.7 0.2 l-3.64 0 q-0.36 0 -0.68 -0.18 t-0.48 -0.46 l-6.08 -9.64 l-7.12 0 l0 8.88 q0 0.56 -0.42 0.98 t-0.98 0.42 l-3.04 0 q-0.56 0 -0.98 -0.42 t-0.42 -0.98 l0 -13.16 q0 -0.56 0.42 -0.98 t0.98 -0.42 l12.32 0 q3.52 0 4.68 -2 q0.4 -0.64 0.4 -1.84 q0 -1.88 -1.24 -2.96 q-1.28 -1.16 -3.68 -1.16 l-12.48 0 q-0.56 0 -0.98 -0.42 t-0.42 -0.98 l0 -2.88 q0 -0.56 0.42 -0.98 t0.98 -0.42 l12.84 0 q4.68 0 7.48 2.64 q2.92 2.64 2.92 7.16 q0 2.92 -1.28 4.98 t-3.72 3.14 z M239.64000000000001 10 q0.6 0 1.02 0.42 t0.42 1.02 l0 2.92 q0 0.6 -0.42 1.02 t-1.02 0.42 l-4.12 0 q-0.56 0 -0.98 -0.42 t-0.42 -1.02 l0 -2.92 q0 -0.6 0.42 -1.02 t0.98 -0.42 l4.12 0 z M257.52 10 q0.56 0 0.98 0.42 t0.42 1.02 l0 2.92 q0 0.6 -0.42 1.02 t-0.98 0.42 l-8.04 0 l0 22.72 q0 0.56 -0.42 0.98 t-0.98 0.42 l-3.08 0 q-0.6 0 -1.02 -0.42 t-0.42 -0.98 l0 -27.08 q0 -0.6 0.42 -1.02 t1.02 -0.42 l12.52 0 z"></path></g></svg>