<svg xmlns="http://www.w3.org/2000/svg" viewBox="21.74 17.6 56.52 64.8">
	<style>
		path {
		fill: #000000;
		}
		@media (prefers-color-scheme: dark) {
		path {
		fill: #ffffff;
		}
		}
	</style>
	<path d="M52.16 62.69L52.16 62.69L41.45 62.69L37.94 82.40L21.74 82.40L33.17 17.60L60.62 17.60Q70.79 17.60 75.11 22.28L75.11 22.28Q78.26 25.88 78.26 31.46L78.26 31.46Q78.26 33.35 77.90 35.42L77.90 35.42L76.10 45.59Q74.75 53.06 68.18 57.88Q61.61 62.69 52.16 62.69ZM54.95 31.64L54.95 31.64L46.85 31.64L43.88 48.65L51.89 48.65Q59.27 48.65 60.44 42.08L60.44 42.08L61.07 38.39Q61.25 37.58 61.25 36.23Q61.25 34.88 59.90 33.26Q58.55 31.64 54.95 31.64Z" />
</svg>
