<?xml version="1.0" encoding="utf-8" ?>
<svg xmlns="http://www.w3.org/2000/svg" xmlns:xlink="http://www.w3.org/1999/xlink" width="1024" height="1024">
	<path d="M0 0L1024 0L1024 754.94L1024 760.962L1024 1024L0 1024L0 0ZM0 0L0 1024L1024 1024L1024 760.962C1012.49 766.44 1002.16 773.706 990.967 779.702C979.807 785.681 968.399 791.335 957.693 798.11C919.522 822.266 891.539 856.281 872.902 897.263C865.726 913.043 860.261 929.484 853.437 945.406C839.937 904.313 823.072 860.021 792.332 828.462Q788.188 824.186 783.649 820.332Q779.111 816.478 774.22 813.081C756.928 801.244 701.635 773.642 693.299 757.353C692.266 755.333 691.811 752.985 692.614 750.803C693.901 747.305 697.026 746.208 700.156 744.818L700.508 743.716C701.298 743.631 701.741 743.51 702.524 743.237L699.224 742.569C687.607 746.706 675.899 750.674 663.933 753.682C624.08 763.701 581.605 766.344 540.6 766.648C538.015 799.958 535.976 833.502 532.009 866.676C527.86 901.382 516.398 931.48 487.981 953.622C472.335 965.813 452.164 973.272 432.587 975.845C415.741 978.06 398.907 975.868 382.099 974.48L339.82 971.295C311.048 969.236 281.704 968.695 253.114 965.031C218.835 960.639 190.619 950.583 168.829 922.153Q167.758 920.777 166.734 919.366Q165.71 917.955 164.733 916.51Q163.756 915.066 162.828 913.589Q161.901 912.113 161.022 910.607Q160.144 909.1 159.317 907.565Q158.49 906.03 157.714 904.468Q156.939 902.907 156.216 901.32Q155.493 899.733 154.823 898.123Q154.153 896.513 153.538 894.882Q152.922 893.251 152.362 891.599Q151.801 889.948 151.296 888.28Q150.79 886.611 150.341 884.926Q149.892 883.241 149.499 881.542Q149.106 879.843 148.77 878.132Q148.434 876.421 148.156 874.7Q147.877 872.979 147.656 871.249C145.617 854.985 147.838 838.584 149.053 822.344Q151.673 786.944 154.682 751.575L161.892 657.486C163.079 642.41 163.7 627.033 165.627 612.046C134.805 597.578 113.839 583.178 94.7927 554.471C75.2149 524.963 67.048 487.315 74.1933 452.521Q74.7845 449.606 75.4928 446.716Q76.2012 443.827 77.0256 440.969Q77.85 438.111 78.789 435.288Q79.7281 432.466 80.7804 429.683Q81.8326 426.901 82.9963 424.163Q84.16 421.425 85.4332 418.737Q86.7064 416.048 88.0871 413.413Q89.4678 410.779 90.9537 408.202Q92.4397 405.624 94.0284 403.109Q95.6171 400.594 97.306 398.146Q98.9949 395.697 100.781 393.318Q102.568 390.94 104.449 388.635Q106.33 386.33 108.302 384.104Q110.274 381.877 112.335 379.731Q114.396 377.586 116.541 375.526Q118.687 373.465 120.914 371.493C130.265 363.304 140.587 356.451 150.951 349.632C150.715 330.628 155.992 311.514 155.884 292.461C153.875 294.896 152.511 298.697 151.229 301.613C147.354 310.426 144.08 320.129 138.016 327.713C132.243 320.179 129.863 310.933 125.583 302.556C113.978 279.844 100.531 257.654 83.0136 238.978Q76.3338 231.941 69.0747 225.504Q61.8156 219.067 54.0308 213.276C45.1294 206.573 35.777 200.584 26.3394 194.676C20.8834 191.261 15.0307 188.011 9.93856 184.074C7.95147 182.538 5.84396 180.756 4.62886 178.531C4.11203 177.585 3.81418 176.625 4.18233 175.583C4.75004 173.977 6.37026 172.829 7.75595 171.957C12.9999 168.658 19.2818 166.345 24.9184 163.76Q33.9106 159.534 42.6722 154.848C54.8846 148.423 66.7722 141.405 77.4609 132.624C100.619 113.599 118.116 85.7901 128.506 57.821C130.989 51.1373 132.664 44.128 134.812 37.3285C135.594 34.8516 137.132 29.4601 139.488 28.2243C144.184 29.893 145.703 40.3874 146.943 44.7836C153.193 66.9533 164.212 88.3992 177.948 106.837C182.503 112.661 186.986 119.133 192.498 124.099C201.515 101.78 214.609 86.7535 237.03 77.1789C246.769 73.0198 256.695 70.3398 267.179 68.8625C288.142 65.9087 309.607 65.14 330.739 64.0174C370.171 61.9228 409.7 60.8093 449.161 59.3287C522.746 56.5677 599.764 49.7129 673.132 56.5138C716.727 60.5548 759.64 69.3591 800.283 85.8896C880.461 118.5 937.32 177.69 970.774 257.032C1002.87 333.143 999.027 433.465 967.933 509.316C948.748 556.116 917.429 601.928 879.048 635.033C881.893 640.721 884.805 646.344 888.393 651.613C920.615 709.37 965.292 730.265 1024 754.94L1024 0L0 0ZM788.948 687.883C786.095 692.122 780.603 695.943 776.716 699.254C770.55 704.506 764.365 709.816 757.652 714.369C739.92 726.394 719.113 734.833 699.224 742.569L702.524 743.237C701.741 743.51 701.298 743.631 700.508 743.716L700.156 744.818C705.819 744.233 715.893 739.87 721.091 737.618C750.606 724.83 776.815 706.884 797.281 681.872C794.572 683.914 791.341 685.489 788.948 687.883Z"/>
	<path fill="#FEFEFE" d="M579.952 580.659C588.762 579.347 598.577 580.59 606.373 585.039C611.3 587.851 615.509 592.107 616.897 597.754C617.958 602.074 617.124 606.599 614.795 610.364C610.132 617.906 601.078 620.687 592.922 622.439C583.027 623.225 573.143 622.766 564.634 617.085C560.118 614.069 556.088 609.623 555.165 604.102C554.446 599.799 555.515 595.497 558.045 591.956C563.191 584.752 571.652 582.061 579.952 580.659Z"/>
	<path fill="#FEFEFE" d="M700.493 534.722C714.368 534.641 729.456 538.096 740.008 547.605C746.777 553.704 750.89 562.066 751.248 571.199C751.684 582.347 746.941 592.556 739.385 600.561C724.874 615.934 705.395 621.191 684.882 621.825C670.717 621.13 656.352 617.627 645.324 608.218C638.625 602.504 634.172 594.818 633.585 585.928C632.873 575.148 637.821 564.761 644.836 556.838C658.955 540.892 680.044 535.841 700.493 534.722Z"/>
	<path fill="#FEFEFE" d="M139.663 36.8536C143.287 41.1018 147.391 60.977 149.642 67.3098C152.202 74.514 155.368 81.6163 158.754 88.4696C164.329 99.7526 170.6 111.061 178.278 121.057C198.892 147.894 228.913 165.242 260.514 175.907C248.021 183.7 233.371 188.944 220.249 195.69C185.413 213.599 160.987 244.305 148.233 280.931C147.049 284.33 139.064 310.988 138.674 311.424L138.01 310.901C134.244 297.988 130.209 285.046 124.818 272.706C101.053 218.308 68.2299 197.119 15.1671 176.369C26.1501 172.69 36.9012 168.493 47.2384 163.248C103.968 134.463 121.031 93.9072 139.663 36.8536Z"/>
	<path fill="#FEFEFE" d="M324.335 211.183C340.469 209.583 356.05 214.142 369.586 222.94C392.475 237.816 405.75 263.544 411.271 289.647C417.97 321.319 412.426 356.552 394.554 383.719C380.977 404.357 361.677 417.028 337.611 421.934C328.819 423.457 319.234 422.194 310.562 420.487C303.68 406.463 291.255 393.334 278.416 384.582C273.715 381.377 268.493 378.875 263.955 375.447C262.325 374.215 260.607 372.814 259.471 371.103C254.013 362.878 250.479 345.082 249.12 334.991C244.848 303.262 251.521 268.482 271.38 242.86C284.814 225.528 302.414 213.984 324.335 211.183Z"/>
	<path d="M329.135 245.659C337.71 244.788 347.305 248.466 354.195 253.351C369.725 264.363 377.985 283.876 380.957 302.131C384.541 324.151 381.362 347.983 368.051 366.393C359.667 377.987 349.841 383.856 335.831 386.182Q334.932 386.238 334.032 386.254Q333.132 386.27 332.232 386.247Q331.332 386.223 330.434 386.16Q329.536 386.097 328.641 385.994Q327.747 385.891 326.858 385.749Q325.969 385.607 325.087 385.426Q324.205 385.245 323.332 385.025Q322.458 384.806 321.596 384.548Q320.733 384.29 319.883 383.994Q319.033 383.698 318.196 383.365Q317.359 383.032 316.538 382.663Q315.717 382.294 314.913 381.888Q314.109 381.483 313.324 381.043Q312.539 380.602 311.774 380.128Q311.008 379.653 310.265 379.146Q309.521 378.638 308.801 378.098C293.464 366.658 284.982 347.575 282.311 329.046C279.196 307.432 283.127 281.912 296.624 264.226C304.966 253.295 315.616 247.527 329.135 245.659Z"/>
	<path fill="#FEFEFE" d="M337.22 260.585C341.656 260.403 345.693 260.8 349.83 262.575C357.41 265.827 362.774 272.445 365.847 279.939C369.586 289.057 370.173 300.543 366.224 309.698C363.09 316.964 357.818 320.775 350.659 323.511C346.055 324.358 341.289 323.991 336.955 322.171C329.718 319.134 324.418 312.388 321.466 305.285C317.661 296.13 317.204 284.94 321.033 275.715C324.237 267.998 329.703 263.665 337.22 260.585Z"/>
	<path fill="#FEFEFE" d="M155.884 292.461C160.451 278.507 169.417 263.875 177.719 251.829Q172.169 307.486 167.9 363.256C137.264 376.846 111.751 401.97 99.5131 433.425C87.9999 463.018 87.3639 497.115 100.382 526.335Q101.041 527.778 101.735 529.205Q102.429 530.632 103.158 532.041Q103.887 533.45 104.651 534.841Q105.414 536.231 106.212 537.603Q107.009 538.974 107.84 540.326Q108.672 541.677 109.536 543.008Q110.4 544.339 111.296 545.648Q112.193 546.957 113.121 548.243Q114.05 549.53 115.01 550.793Q115.97 552.056 116.96 553.295Q117.951 554.535 118.972 555.749Q119.993 556.964 121.043 558.153Q122.094 559.342 123.173 560.504Q124.252 561.667 125.36 562.803Q126.468 563.939 127.603 565.047Q128.738 566.155 129.901 567.235Q131.063 568.315 132.252 569.366Q133.44 570.417 134.654 571.439Q135.868 572.46 137.107 573.451Q138.346 574.443 139.608 575.403Q140.871 576.364 142.157 577.293Q143.443 578.222 144.752 579.119Q146.06 580.016 147.391 580.881Q148.721 581.745 150.072 582.577Q151.423 583.409 152.794 584.207Q154.165 585.005 155.556 585.769Q156.946 586.534 158.355 587.263Q159.764 587.993 161.19 588.688Q162.616 589.383 164.059 590.042Q165.502 590.702 166.961 591.326Q168.42 591.949 169.894 592.537Q171.367 593.125 172.855 593.676Q178.929 595.935 185.078 597.983C183.439 632.554 180.024 666.937 177.248 701.423L171.141 787.941L167.892 830.074C166.887 843.002 165.199 856.28 166.9 869.206C169.151 886.312 176.012 902.371 187.698 915.148C198.31 926.751 211.995 935.87 227.055 940.533C241.837 945.111 257.907 945.623 273.248 946.731L317.5 949.925C349.114 952.312 380.614 955.873 412.312 957.122C438.204 958.143 462.759 951.039 482.012 933.122Q484.192 931.054 486.235 928.851Q488.279 926.648 490.177 924.319Q492.075 921.99 493.821 919.544Q495.566 917.098 497.152 914.546Q498.738 911.993 500.157 909.345Q501.576 906.697 502.824 903.963Q504.071 901.229 505.141 898.421Q506.211 895.613 507.099 892.743C513.51 872.467 513.509 848.12 515.247 826.922L521.849 746.52C596.548 745.598 673.336 740.972 743.023 711.642C754.213 706.932 764.981 701.201 775.612 695.359C780.017 692.939 784.437 690.051 788.948 687.883C786.095 692.122 780.603 695.943 776.716 699.254C770.55 704.506 764.365 709.816 757.652 714.369C739.92 726.394 719.113 734.833 699.224 742.569C687.607 746.706 675.899 750.674 663.933 753.682C624.08 763.701 581.605 766.344 540.6 766.648C538.015 799.958 535.976 833.502 532.009 866.676C527.86 901.382 516.398 931.48 487.981 953.622C472.335 965.813 452.164 973.272 432.587 975.845C415.741 978.06 398.907 975.868 382.099 974.48L339.82 971.295C311.048 969.236 281.704 968.695 253.114 965.031C218.835 960.639 190.619 950.583 168.829 922.153Q167.758 920.777 166.734 919.366Q165.71 917.955 164.733 916.51Q163.756 915.066 162.828 913.589Q161.901 912.113 161.022 910.607Q160.144 909.1 159.317 907.565Q158.49 906.03 157.714 904.468Q156.939 902.907 156.216 901.32Q155.493 899.733 154.823 898.123Q154.153 896.513 153.538 894.882Q152.922 893.251 152.362 891.599Q151.801 889.948 151.296 888.28Q150.79 886.611 150.341 884.926Q149.892 883.241 149.499 881.542Q149.106 879.843 148.77 878.132Q148.434 876.421 148.156 874.7Q147.877 872.979 147.656 871.249C145.617 854.985 147.838 838.584 149.053 822.344Q151.673 786.944 154.682 751.575L161.892 657.486C163.079 642.41 163.7 627.033 165.627 612.046C134.805 597.578 113.839 583.178 94.7927 554.471C75.2149 524.963 67.048 487.315 74.1933 452.521Q74.7845 449.606 75.4928 446.716Q76.2012 443.827 77.0256 440.969Q77.85 438.111 78.789 435.288Q79.7281 432.466 80.7804 429.683Q81.8326 426.901 82.9963 424.163Q84.16 421.425 85.4332 418.737Q86.7064 416.048 88.0871 413.413Q89.4678 410.779 90.9537 408.202Q92.4397 405.624 94.0284 403.109Q95.6171 400.594 97.306 398.146Q98.9949 395.697 100.781 393.318Q102.568 390.94 104.449 388.635Q106.33 386.33 108.302 384.104Q110.274 381.877 112.335 379.731Q114.396 377.586 116.541 375.526Q118.687 373.465 120.914 371.493C130.265 363.304 140.587 356.451 150.951 349.632C150.715 330.628 155.992 311.514 155.884 292.461Z"/>
	<path fill="#FC9CC8" d="M207.814 375.694C208.272 375.641 208.73 375.583 209.19 375.548C234.215 373.652 259.234 382.605 278.336 398.609C297.698 414.83 311.26 438.964 313.272 464.286Q313.368 465.505 313.433 466.727Q313.499 467.948 313.534 469.171Q313.569 470.394 313.574 471.617Q313.58 472.84 313.555 474.063Q313.53 475.286 313.474 476.508Q313.419 477.73 313.334 478.95Q313.249 480.17 313.133 481.388Q313.018 482.606 312.873 483.821Q312.727 485.035 312.552 486.246Q312.377 487.456 312.172 488.662Q311.967 489.868 311.732 491.068Q311.497 492.269 311.233 493.463Q310.969 494.658 310.675 495.845Q310.381 497.032 310.058 498.212Q309.735 499.392 309.384 500.564Q309.032 501.735 308.651 502.898Q308.27 504.06 307.861 505.213Q307.452 506.366 307.015 507.508Q306.577 508.65 306.111 509.781Q305.646 510.912 305.153 512.032Q304.659 513.151 304.138 514.258Q303.618 515.365 303.07 516.458Q302.522 517.552 301.947 518.632Q301.372 519.711 300.771 520.777Q300.17 521.842 299.543 522.892Q298.916 523.942 298.263 524.977Q297.61 526.011 296.931 527.029Q296.253 528.047 295.55 529.048Q294.847 530.048 294.119 531.032Q293.391 532.015 292.64 532.98Q291.888 533.945 291.113 534.891Q290.337 535.837 289.539 536.764C273.607 555.231 249.726 568.692 225.12 570.434C200.981 573.131 175.348 566.435 156.096 551.501Q155.135 550.748 154.193 549.971Q153.251 549.194 152.329 548.394Q151.406 547.595 150.504 546.773Q149.601 545.951 148.719 545.107Q147.836 544.263 146.975 543.398Q146.114 542.532 145.274 541.646Q144.434 540.76 143.616 539.854Q142.799 538.947 142.003 538.021Q141.208 537.095 140.436 536.149Q139.663 535.204 138.914 534.239Q138.165 533.275 137.44 532.293Q136.715 531.311 136.015 530.311Q135.314 529.311 134.638 528.294Q133.962 527.278 133.311 526.245Q132.66 525.212 132.035 524.163Q131.41 523.115 130.81 522.051Q130.211 520.988 129.638 519.909Q129.065 518.831 128.518 517.74Q127.972 516.648 127.452 515.543Q126.933 514.438 126.441 513.321Q125.948 512.204 125.484 511.075Q125.019 509.946 124.582 508.806Q124.145 507.666 123.737 506.516Q123.328 505.365 122.947 504.205Q122.567 503.045 122.215 501.876Q121.863 500.707 121.54 499.529Q121.217 498.352 120.923 497.167Q120.629 495.982 120.364 494.79Q120.099 493.599 119.864 492.401Q119.628 491.203 119.422 489.999Q119.216 488.796 119.039 487.588Q118.863 486.38 118.716 485.168C115.579 458.353 122.859 432.198 139.792 411.099C156.866 389.825 181.044 378.644 207.814 375.694Z"/>
	<path d="M241.273 479.586C242.454 479.872 243.585 480.143 244.379 481.151C246.401 483.717 246.244 489.835 245.968 493.008C245.38 499.768 242.291 505.778 236.998 510.052Q236.462 510.476 235.906 510.873Q235.35 511.27 234.775 511.639Q234.2 512.008 233.607 512.348Q233.014 512.688 232.405 512.998Q231.796 513.307 231.173 513.587Q230.549 513.866 229.913 514.114Q229.276 514.362 228.628 514.578Q227.979 514.794 227.321 514.978Q226.663 515.161 225.997 515.312Q225.33 515.462 224.657 515.579Q223.984 515.697 223.306 515.78Q222.628 515.864 221.946 515.914Q221.265 515.963 220.582 515.979Q219.898 515.995 219.215 515.977Q218.532 515.959 217.851 515.907Q217.17 515.855 216.492 515.769C208.549 514.758 202.821 510.479 197.998 504.379C196.507 501.74 194.403 498.136 194.618 495.023C195.512 494.315 196.019 494.562 196.995 495.155C198.813 496.258 200.254 498.044 201.72 499.567C206.275 504.299 211.23 507.516 217.984 508.102C223.322 508.565 228.465 507.014 232.545 503.507C239.819 497.254 240.422 488.41 241.273 479.586Z"/>
	<path d="M152.933 453.611C157.638 453.24 162.128 453.704 166.498 455.606C172.87 458.378 177.449 463.786 179.879 470.214C182.345 476.738 182.24 484.216 179.174 490.52C175.597 497.875 169.582 501.514 162.189 504.165C156.747 504.969 151.475 504.72 146.514 502.081C140.434 498.847 136.038 492.816 134.145 486.262C132.12 479.25 132.735 471.089 136.398 464.712C140.12 458.232 146.02 455.441 152.933 453.611Z"/>
	<path fill="#FEFEFE" d="M149.733 460.976C151.266 460.991 152.794 461.079 154.251 461.606C156.698 462.489 158.822 464.732 159.817 467.105C160.838 469.54 160.885 472.284 159.749 474.688C158.456 477.424 156.528 478.498 153.798 479.518C152.014 479.567 150.198 479.61 148.483 479.034C146.272 478.291 144.234 476.462 143.195 474.384Q143 473.99 142.845 473.578Q142.69 473.167 142.576 472.742Q142.462 472.317 142.391 471.883Q142.321 471.449 142.293 471.01Q142.265 470.571 142.282 470.132Q142.298 469.692 142.357 469.257Q142.417 468.821 142.519 468.393Q142.622 467.965 142.766 467.55C143.968 464.031 146.513 462.459 149.733 460.976Z"/>
	<path d="M264.911 423.567C270.162 423.31 274.937 423.739 279.691 426.215C285.877 429.436 290.449 435.331 292.434 441.977Q292.632 442.641 292.796 443.314Q292.961 443.987 293.092 444.668Q293.224 445.348 293.322 446.034Q293.419 446.72 293.483 447.41Q293.547 448.1 293.577 448.792Q293.607 449.484 293.603 450.177Q293.598 450.87 293.56 451.562Q293.522 452.254 293.449 452.943Q293.377 453.632 293.271 454.317Q293.165 455.001 293.025 455.68Q292.886 456.359 292.713 457.03Q292.54 457.701 292.334 458.362Q292.128 459.024 291.89 459.675Q291.652 460.326 291.383 460.964Q291.113 461.602 290.812 462.226Q290.511 462.85 290.18 463.459C286.529 470.02 280.857 473.284 273.913 475.388C268.447 476.137 263.318 475.848 258.308 473.314C252.394 470.322 248.457 464.97 246.374 458.774C244.007 451.729 244.347 443.41 247.752 436.78C251.441 429.598 257.486 425.919 264.911 423.567Z"/>
	<path fill="#FEFEFE" d="M264.339 429.433C265.46 429.608 266.591 429.79 267.678 430.122C270.528 430.992 273.092 432.938 274.431 435.635Q274.643 436.054 274.809 436.493Q274.974 436.932 275.092 437.386Q275.209 437.841 275.277 438.305Q275.345 438.77 275.363 439.239Q275.38 439.708 275.347 440.176Q275.314 440.644 275.231 441.106Q275.148 441.568 275.015 442.018Q274.883 442.469 274.703 442.902C273.234 446.448 270.415 447.851 267.029 449.183C265.335 449.132 263.561 449.1 261.961 448.487C259.561 447.567 257.486 445.742 256.472 443.36C255.478 441.023 255.553 438.397 256.535 436.071C258.078 432.412 260.841 430.905 264.339 429.433Z"/>
	<path fill="#FEFEFE" d="M854.918 598.83C859.062 602.31 863.585 620.909 865.878 626.798C871.045 640.071 878.153 652.363 885.555 664.493C917.543 716.916 952.3 733.575 1006.52 757.466C986.753 762.582 968.435 769.843 950.764 780.114C901.335 808.843 869.739 857.263 855.257 911.881L854.141 915.588C851.432 905.927 848.693 896.407 845.205 886.996C829.715 845.204 803.709 803.272 763.65 781.203C745.707 771.317 726.029 764.707 707.414 756.172C715.425 752.9 723.608 749.975 731.329 746.042C779.832 721.337 817.553 685.152 840.86 635.58C846.478 623.631 850.798 611.36 854.918 598.83Z"/>
	<path fill="#FEFEFE" d="M563.601 273.273C602.222 271.5 653.414 272.526 688.105 291.22C713.735 305.032 730.806 326.404 739.009 354.318C748.597 386.94 745.887 423.917 729.285 453.85C710.327 488.029 674.982 510.203 638.136 520.86C583.832 534.994 525.529 534.362 469.94 529.393C471.327 505.361 473.952 481.323 476.03 457.339L483.203 372.792Q487.844 325.522 491.598 278.174C515.528 274.925 539.475 273.698 563.601 273.273Z"/>
	<path d="M552.284 323.711C560.577 322.865 569.326 323.255 577.679 323.249C602.152 323.231 628.529 322.486 651.227 333.074C666.513 340.204 677.168 353.145 682.841 368.877Q683.451 370.566 683.978 372.283Q684.504 373.999 684.947 375.739Q685.389 377.48 685.746 379.239Q686.103 380.999 686.373 382.774Q686.644 384.549 686.828 386.336Q687.012 388.122 687.108 389.915Q687.205 391.708 687.213 393.503Q687.222 395.299 687.144 397.093Q687.065 398.887 686.899 400.674Q686.733 402.462 686.479 404.24Q686.226 406.018 685.887 407.781Q685.547 409.544 685.122 411.289Q684.697 413.033 684.187 414.755Q683.678 416.477 683.085 418.171Q682.492 419.866 681.816 421.53Q681.141 423.194 680.386 424.823C669.972 446.709 649.303 459.5 627.132 467.242C599.552 475.606 571.263 477.317 542.617 477.665C529.266 477.827 515.786 477.834 502.452 477.091C504.159 426.853 513.432 376.387 515.562 326.171C527.559 324.246 540.153 324.352 552.284 323.711Z"/>
	<path fill="#FEFEFE" d="M560.025 353.782C580.577 352.447 614.566 351.786 633.72 359.612C642.306 363.12 649.338 369.186 652.93 377.866C657.088 387.913 656.454 400.401 652.223 410.315C646.447 423.852 635.362 431.385 622.126 436.703C595.388 445.93 565.471 447.003 537.475 446.464C537.372 436.78 538.821 426.898 539.656 417.248C541.459 396.417 543.607 375.432 544.605 354.553L560.025 353.782Z"/>
	<path fill="#DE4561" d="M567.666 372.217C583.207 371.091 607.29 370.601 621.995 374.957C627.287 376.524 632.173 379.405 634.77 384.454C637.411 389.589 637.094 396.35 635.204 401.682C632.179 410.216 625.293 414.499 617.633 418.259C599.475 425.939 577.394 427.283 557.829 427.586C558.248 416.698 559.215 405.76 560.063 394.897C560.606 387.937 560.458 379.574 562.585 372.963C564.012 372.151 566.039 372.292 567.666 372.217Z"/>
	<path fill="#FEFEFE" d="M595.197 84.7792C609.896 84.0512 624.709 84.6036 639.406 85.1848C718.949 88.33 805.418 108.053 866.734 161.957Q869.325 164.229 871.858 166.565Q874.392 168.902 876.867 171.3Q879.341 173.698 881.755 176.158Q884.169 178.617 886.521 181.136Q888.873 183.655 891.162 186.231Q893.451 188.808 895.675 191.44Q897.898 194.073 900.056 196.76Q902.213 199.447 904.303 202.187Q906.393 204.927 908.414 207.719Q910.436 210.51 912.387 213.351Q914.338 216.192 916.217 219.08Q918.097 221.968 919.904 224.903Q921.711 227.837 923.445 230.816Q925.178 233.794 926.837 236.815Q928.496 239.835 930.079 242.896Q931.662 245.957 933.168 249.057Q934.675 252.156 936.104 255.293Q937.532 258.429 938.883 261.599Q940.233 264.77 941.504 267.973Q942.774 271.177 943.965 274.41Q945.156 277.644 946.266 280.907Q947.376 284.17 948.404 287.459Q949.432 290.748 950.378 294.062Q951.324 297.376 952.187 300.712Q953.051 304.048 953.83 307.405Q954.61 310.762 955.307 314.137Q956.003 317.512 956.614 320.904Q957.226 324.295 957.753 327.701Q958.281 331.106 958.723 334.524Q959.165 337.942 959.522 341.369Q959.879 344.797 960.151 348.232Q960.422 351.668 960.608 355.109Q960.865 358.65 961.044 362.195Q961.223 365.741 961.323 369.289Q961.423 372.838 961.445 376.388Q961.466 379.938 961.409 383.487Q961.352 387.037 961.217 390.584Q961.081 394.132 960.867 397.675Q960.653 401.219 960.36 404.757Q960.068 408.295 959.697 411.826Q959.327 415.356 958.878 418.878Q958.429 422.399 957.902 425.91Q957.375 429.421 956.771 432.919Q956.167 436.417 955.485 439.901Q954.804 443.385 954.045 446.853Q953.286 450.321 952.451 453.771Q951.616 457.222 950.705 460.653Q949.793 464.084 948.806 467.494Q947.819 470.904 946.757 474.291Q945.694 477.679 944.557 481.042Q943.42 484.405 942.209 487.742Q940.998 491.079 939.713 494.388Q938.428 497.697 937.07 500.977Q935.712 504.257 934.282 507.507Q932.852 510.756 931.35 513.973Q929.849 517.189 928.276 520.372Q926.704 523.555 925.061 526.702Q923.418 529.849 921.706 532.959Q919.994 536.069 918.214 539.14Q916.434 542.212 914.586 545.243Q912.738 548.274 910.823 551.263Q908.909 554.253 906.928 557.199Q904.948 560.146 902.903 563.047Q900.858 565.949 898.749 568.805C889.016 581.997 877.364 593.956 866.548 606.272C864.62 599.704 863.033 592.104 859.607 586.135C858.625 584.422 857.696 583.115 855.708 582.62C849.364 583.738 847.155 598.549 844.405 603.749C843.161 606.101 840.844 608.329 838.981 610.209C771.599 678.197 680.612 705.37 587.166 712.035C556.206 714.243 525.202 713.962 494.186 713.916C491.631 730.099 491.186 746.636 489.91 762.957Q486.932 800.931 483.453 838.862C482.162 853.874 482.237 870.222 477.975 884.724C474.964 894.972 469.563 903.725 461.798 911.056C447.682 924.384 431.069 927.545 412.205 927.025C399.425 926.673 386.571 925.444 373.821 924.529Q332.952 921.496 292.119 918.005L259.827 915.441C253.036 914.92 245.655 914.836 239.046 913.194C228.565 910.591 219.186 905.753 211.787 897.797Q211.03 896.993 210.305 896.159Q209.581 895.326 208.891 894.464Q208.201 893.601 207.546 892.712Q206.891 891.823 206.272 890.908Q205.654 889.993 205.073 889.054Q204.491 888.115 203.948 887.153Q203.406 886.191 202.902 885.208Q202.398 884.226 201.934 883.223Q201.47 882.221 201.047 881.201Q200.624 880.181 200.243 879.145Q199.861 878.108 199.521 877.057Q199.182 876.006 198.885 874.943Q198.588 873.879 198.334 872.804Q198.08 871.729 197.869 870.645Q197.659 869.561 197.492 868.469Q197.326 867.378 197.203 866.28C195.921 855 197.694 843.277 198.615 832.005L201.839 790.763L211.592 658.517C213.241 636.123 215.687 613.557 216.566 591.136C235.377 589.177 249.508 585.261 266.873 577.731C265.196 591.816 265.272 608.048 264.371 622.498L257.942 718.846Q255.681 753.919 252.422 788.913C251.084 804.391 246.513 844.353 249.17 857.771C249.981 861.87 252.592 864.999 256.063 867.267C258.459 868.833 261.113 869.718 263.928 870.129C274.279 871.643 285.017 871.938 295.451 872.688Q325.24 874.884 355.051 876.738C368.823 877.639 415.745 882.783 425.083 880.312C431.957 878.492 436.413 873.561 439.855 867.643C443.498 859.548 445.858 815.86 446.916 804.014C450.889 759.505 454.242 714.907 458.592 670.44C478.522 670.699 498.431 671.909 518.36 672.227C564.799 672.968 612.1 671.567 658.119 665.012C742.791 652.951 825.727 616.137 878.068 546.26C919.446 491.017 932.678 417.944 922.889 350.435C914.1 289.819 883.354 233.748 833.955 196.909C799.322 171.081 760.317 154.396 718.048 145.736C661.474 134.146 602.035 136.539 544.634 138.135Q482.072 139.48 419.547 142.005Q371.785 143.515 324.071 146.144C307.996 147.031 291.518 147.302 275.574 149.617C274.93 176.436 272.437 203.824 269.633 230.501C263.312 237.346 257.744 244.675 253.187 252.813C232.125 290.43 234.938 328.227 246.031 367.947C232.155 364.28 218.446 362.619 204.106 363.362C207.443 313.618 212.244 263.908 216.121 214.197C228.084 206.701 240.162 199.309 251.89 191.451C256.56 188.322 261.934 185.11 265.99 181.23C267.5 179.786 269.167 177.837 268.991 175.592C268.815 173.349 266.869 171.517 265.208 170.221C260.301 166.394 253.927 163.537 248.48 160.512C238.323 154.87 228.305 149.152 218.882 142.332C221.137 132.719 224.498 123.519 231.462 116.292C239.679 107.765 251.368 102.81 262.768 100.294C274.256 97.7587 286.245 97.0646 297.952 96.1421Q332.971 93.7336 368.048 92.4213Q481.57 87.0317 595.197 84.7792Z"/>
	<path fill="#FEFEFE" d="M177.948 106.837C190.273 82.5585 209.859 65.5967 235.782 57.1139C268.784 46.3145 308.026 46.9877 342.614 45.3261Q401.085 42.4664 459.602 40.8162C519.156 38.9816 578.984 35.3152 638.572 36.67Q671.464 37.477 704.065 41.9162C749.278 47.9739 794.956 61.2403 835.645 82.0111C913.812 121.913 970.099 191.725 996.885 274.782C1024.5 360.395 1013.87 463.776 973.011 543.532C953.517 581.58 922.532 625.405 888.393 651.613C884.805 646.344 881.893 640.721 879.048 635.033C917.429 601.928 948.748 556.116 967.933 509.316C999.027 433.465 1002.87 333.143 970.774 257.032C937.32 177.69 880.461 118.5 800.283 85.8896C759.64 69.3591 716.727 60.5548 673.132 56.5138C599.764 49.7129 522.746 56.5677 449.161 59.3287C409.7 60.8093 370.171 61.9228 330.739 64.0174C309.607 65.14 288.142 65.9087 267.179 68.8625C256.695 70.3398 246.769 73.0198 237.03 77.1789C214.609 86.7535 201.515 101.78 192.498 124.099C186.986 119.133 182.503 112.661 177.948 106.837Z"/>
</svg>
