<svg xmlns="http://www.w3.org/2000/svg" viewBox="0 0 512 512">
  <defs>
    <linearGradient id="bg-gradient" x1="0%" y1="0%" x2="100%" y2="100%">
      <stop offset="0%" stop-color="#5672C7"/>
      <stop offset="30%" stop-color="#759EC1"/>
      <stop offset="70%" stop-color="#6682D7"/>
      <stop offset="100%" stop-color="#5773C8"/>
    </linearGradient>
    <linearGradient id="primary-gradient" x1="20%" y1="20%" x2="80%" y2="80%">
      <stop offset="0%" stop-color="#759EC1"/>
      <stop offset="50%" stop-color="#8BB4D1"/>
      <stop offset="100%" stop-color="#A8D2D7"/>
    </linearGradient>
    <linearGradient id="secondary-gradient" x1="10%" y1="10%" x2="90%" y2="90%">
      <stop offset="0%" stop-color="#78A0C3"/>
      <stop offset="50%" stop-color="#88B0D3"/>
      <stop offset="100%" stop-color="#ABD4D6"/>
    </linearGradient>
    <linearGradient id="tertiary-gradient" x1="0%" y1="0%" x2="100%" y2="100%">
      <stop offset="0%" stop-color="#7DA6C3"/>
      <stop offset="50%" stop-color="#8DB6D3"/>
      <stop offset="100%" stop-color="#A5C7D2"/>
    </linearGradient>
    <linearGradient id="quaternary-gradient" x1="30%" y1="30%" x2="70%" y2="70%">
      <stop offset="0%" stop-color="#73A1C3"/>
      <stop offset="100%" stop-color="#A1C6D0"/>
    </linearGradient>
    <linearGradient id="accent-gradient" x1="0%" y1="0%" x2="100%" y2="100%">
      <stop offset="0%" stop-color="#5672C7"/>
      <stop offset="50%" stop-color="#6682D7"/>
      <stop offset="100%" stop-color="#7193CD"/>
    </linearGradient>
  </defs>

  <!-- Background with rounded corners -->
  <rect width="512" height="512" rx="112" fill="url(#bg-gradient)"/>

  <!-- Main structural elements inspired by the Portr logo -->
  <path d="M128 180c0-36 18-72 54-90s72-18 108 0c18 18 36 36 36 72v108c0 36-18 72-54 90s-72 18-108 0c-18-18-36-36-36-72V180z" fill="url(#primary-gradient)"/>

  <path d="M180 110c36-18 72 0 90 18s36 54 36 90v72c0 18-18 36-36 36H180c-18 0-36-18-36-36V218c0-36 18-72 54-108z" fill="url(#secondary-gradient)"/>

  <path d="M220 140c28-14 56 0 70 14s28 42 28 70v56c0 14-14 28-28 28H220c-14 0-28-14-28-28V224c0-28 14-56 42-84z" fill="url(#tertiary-gradient)"/>

  <path d="M240 160c20-10 40 0 50 10s20 30 20 50v40c0 10-10 20-20 20H240c-10 0-20-10-20-20V220c0-20 10-40 30-60z" fill="url(#quaternary-gradient)"/>

  <!-- Bottom accent elements -->
  <rect x="160" y="380" width="192" height="96" rx="48" fill="url(#accent-gradient)"/>
  <rect x="180" y="400" width="152" height="56" rx="28" fill="#5773C8"/>

  <!-- Layered highlights for depth and dimension -->
  <ellipse cx="256" cy="240" rx="80" ry="120" fill="white" opacity="0.15"/>
  <ellipse cx="256" cy="220" rx="60" ry="90" fill="white" opacity="0.1"/>
  <circle cx="256" cy="200" r="40" fill="white" opacity="0.08"/>

  <!-- Inner core detail -->
  <circle cx="256" cy="200" r="24" fill="white" opacity="0.12"/>
  <circle cx="256" cy="195" r="12" fill="white" opacity="0.2"/>

  <!-- Additional geometric detail for high resolution -->
  <path d="M200 150c20-8 40 2 48 12s16 26 16 40v32c0 8-8 16-16 16H200c-8 0-16-8-16-16V202c0-20 8-40 24-52z" fill="white" opacity="0.05"/>
</svg>
