<svg width="734" height="194" viewBox="0 0 734 194" fill="none" xmlns="http://www.w3.org/2000/svg">
	<circle cx="34" cy="34.4561" r="34" fill="black" />
	<circle cx="163" cy="159.456" r="34" fill="black" />
	<path d="M159 125.456C159 127.665 160.791 129.456 163 129.456C165.209 129.456 167 127.665 167 125.456L159 125.456ZM68 38.4561L143 38.4561L143 30.4561L68 30.4561L68 38.4561ZM159 54.4561L159 125.456L167 125.456L167 54.4561L159 54.4561ZM143 38.4561C151.837 38.4561 159 45.6196 159 54.4561L167 54.4561C167 41.2013 156.255 30.4561 143 30.4561L143 38.4561Z" fill="black" />
	<path d="M270.4 170V29H331.6C347.067 29 359 32.8667 367.4 40.6C375.8 48.3333 380 59.1333 380 73C380 86.8667 375.8 97.7333 367.4 105.6C359 113.333 347.067 117.2 331.6 117.2H296V170H270.4ZM296 97H327.6C346 97 355.2 89 355.2 73C355.2 57.1333 346 49.2 327.6 49.2H296V97ZM437.991 172C427.857 172 419.057 169.933 411.591 165.8C404.124 161.667 398.324 155.8 394.191 148.2C390.057 140.467 387.991 131.4 387.991 121C387.991 110.6 390.057 101.6 394.191 94C398.324 86.4 404.124 80.5333 411.591 76.4C419.057 72.2667 427.857 70.2 437.991 70.2C448.124 70.2 456.924 72.2667 464.391 76.4C471.857 80.5333 477.657 86.4 481.791 94C485.924 101.6 487.991 110.6 487.991 121C487.991 131.4 485.924 140.467 481.791 148.2C477.657 155.8 471.857 161.667 464.391 165.8C456.924 169.933 448.124 172 437.991 172ZM437.991 153C445.457 153 451.457 150.333 455.991 145C460.524 139.533 462.791 131.533 462.791 121C462.791 110.333 460.524 102.4 455.991 97.2C451.457 91.8667 445.457 89.2 437.991 89.2C430.524 89.2 424.524 91.8667 419.991 97.2C415.457 102.4 413.191 110.333 413.191 121C413.191 131.533 415.457 139.533 419.991 145C424.524 150.333 430.524 153 437.991 153ZM508.625 170V72.2H533.025V89.4C537.825 77.8 548.092 71.4 563.825 70.2L571.425 69.6L573.025 90.8L558.625 92.2C542.225 93.8 534.025 102.2 534.025 117.4V170H508.625ZM637.409 172C611.543 172 598.609 159.2 598.609 133.6V91H579.809V72.2H598.609V43H623.609V72.2H653.209V91H623.609V132.2C623.609 138.6 625.009 143.4 627.809 146.6C630.609 149.8 635.143 151.4 641.409 151.4C643.276 151.4 645.209 151.2 647.209 150.8C649.209 150.267 651.276 149.733 653.409 149.2L657.209 167.6C654.809 168.933 651.743 170 648.009 170.8C644.409 171.6 640.876 172 637.409 172ZM669.367 170V72.2H693.767V89.4C698.567 77.8 708.834 71.4 724.567 70.2L732.167 69.6L733.767 90.8L719.367 92.2C702.967 93.8 694.767 102.2 694.767 117.4V170H669.367Z" fill="black" />
</svg>
