<svg xmlns="http://www.w3.org/2000/svg" width="254.39999999999998" height="73.50836483050567" viewBox="0 0 370 106.91075073619142">
	<defs id="SvgjsDefs2057">
	</defs>
	<g id="SvgjsG2058" featurekey="v37d4h-0" transform="matrix(1.8053149026078668,0,0,1.8053149026078668,-40.26574513039334,-36.81036976229763)" fill="#000">
		<path xmlns="http://www.w3.org/2000/svg" d="M74.413,20.39H61.141c-1.811,0-3.283,1.473-3.283,3.283v13.272c0,1.811,1.473,3.283,3.283,3.283h13.272  c1.811,0,3.283-1.473,3.283-3.283V23.673C77.696,21.862,76.223,20.39,74.413,20.39z M75.696,36.945c0,0.708-0.576,1.283-1.283,1.283  H61.141c-0.708,0-1.283-0.576-1.283-1.283V23.673c0-0.708,0.576-1.283,1.283-1.283h13.272c0.708,0,1.283,0.576,1.283,1.283V36.945z">
		</path>
		<path xmlns="http://www.w3.org/2000/svg" d="M48.827,36.089v27.822c0,2.636-2.145,4.78-4.78,4.78v2c3.739,0,6.78-3.042,6.78-6.78V36.089c0-2.636,2.145-4.78,4.78-4.78  v-2C51.869,29.309,48.827,32.351,48.827,36.089z">
		</path>
		<path xmlns="http://www.w3.org/2000/svg" d="M38.859,59.772H25.587c-1.811,0-3.283,1.473-3.283,3.283v13.272c0,1.81,1.473,3.283,3.283,3.283h13.272  c1.811,0,3.283-1.473,3.283-3.283V63.056C42.142,61.245,40.67,59.772,38.859,59.772z M40.142,76.328  c0,0.708-0.576,1.283-1.283,1.283H25.587c-0.708,0-1.283-0.575-1.283-1.283V63.056c0-0.708,0.576-1.283,1.283-1.283h13.272  c0.708,0,1.283,0.576,1.283,1.283V76.328z">
		</path>
	</g>
	<g id="SvgjsG2059" featurekey="UxBHKT-0" transform="matrix(4.658963859688809,0,0,4.658963859688809,120.09318029911464,-11.635855438755236)" fill="#000">
		<path d="M0 12.04 l3.2 0 l0 4.06 l6.02 -4.18 l0 -0.7 l-9.22 0 l0 -3.2 l12.42 0 l0 5.58 l-9.22 6.4 l-0.02 4.06 l-3.2 0 z M13.620000000000001 8.02 l8.4 0 l0 3.2 l-5.2 0 l0 5.58 l6.02 0 l0 -8.78 l3.2 0 l0 11.98 l-12.42 0 l0 -11.98 z M27.240000000000002 20 l3.2 0 l0 -7.96 l-3.2 0 l0 7.96 z M35.24 8.02 l0 3.2 l-8 0 l0 -3.2 l8 0 z M39.64000000000001 4 l0 4.02 l3.2 0 l0 3.2 l-3.2 0 l0 5.58 l4.8 0 l0 3.2 l-8 0 l0 -16 l3.2 0 z M45.64000000000001 20 l3.2 0 l0 -7.96 l-3.2 0 l0 7.96 z M53.64000000000001 8.02 l0 3.2 l-8 0 l0 -3.2 l8 0 z">
		</path>
	</g>
</svg>
