<svg xmlns="http://www.w3.org/2000/svg" viewBox="0 0 100 100">
	<rect width="100" height="100" rx="20" fill="#000000" />
	<path fill="#ffffff" d="M36.05 39.10L36.05 85.50L26.65 85.50L26.65 39.50Q26.65 27.70 33 21.10Q39.35 14.50 49.85 14.50L49.85 14.50Q61.05 14.50 67.20 20.90Q73.35 27.30 73.35 37.20L73.35 37.20Q73.35 43.40 71.10 48Q68.85 52.60 65.05 55.10Q61.25 57.60 56.95 58.80Q52.65 60 47.95 60L47.95 60L40.45 60L40.45 51.20L49.05 51.20Q55.75 51.20 59.60 47.15Q63.45 43.10 63.45 37L63.45 37Q63.45 31 59.90 27.15Q56.35 23.30 49.75 23.30L49.75 23.30Q43.35 23.30 39.70 27.65Q36.05 32 36.05 39.10L36.05 39.10Z" />
</svg>
