<svg xmlns="http://www.w3.org/2000/svg" viewBox="0 0 100 106.91">
	<defs id="SvgjsDefs2543">
	</defs>
	<style>
		.icon-path {
		fill: black
		}
		@media (prefers-color-scheme: dark) {
		.icon-path {
		fill: white
		}
		}
	</style>
	<g id="SvgjsG2544" featurekey="symbolFeature-0" transform="matrix(1.8053149026078668,0,0,1.8053149026078668,-40.26574513039334,-36.81036976229763)" fill="#000000">
		<path xmlns="http://www.w3.org/2000/svg" class="icon-path" d="M74.413,20.39H61.141c-1.811,0-3.283,1.473-3.283,3.283v13.272c0,1.811,1.473,3.283,3.283,3.283h13.272  c1.811,0,3.283-1.473,3.283-3.283V23.673C77.696,21.862,76.223,20.39,74.413,20.39z M75.696,36.945c0,0.708-0.576,1.283-1.283,1.283  H61.141c-0.708,0-1.283-0.576-1.283-1.283V23.673c0-0.708,0.576-1.283,1.283-1.283h13.272c0.708,0,1.283,0.576,1.283,1.283V36.945z">
		</path>
		<path xmlns="http://www.w3.org/2000/svg" class="icon-path" d="M48.827,36.089v27.822c0,2.636-2.145,4.78-4.78,4.78v2c3.739,0,6.78-3.042,6.78-6.78V36.089c0-2.636,2.145-4.78,4.78-4.78  v-2C51.869,29.309,48.827,32.351,48.827,36.089z">
		</path>
		<path xmlns="http://www.w3.org/2000/svg" class="icon-path" d="M38.859,59.772H25.587c-1.811,0-3.283,1.473-3.283,3.283v13.272c0,1.81,1.473,3.283,3.283,3.283h13.272  c1.811,0,3.283-1.473,3.283-3.283V63.056C42.142,61.245,40.67,59.772,38.859,59.772z M40.142,76.328  c0,0.708-0.576,1.283-1.283,1.283H25.587c-0.708,0-1.283-0.575-1.283-1.283V63.056c0-0.708,0.576-1.283,1.283-1.283h13.272  c0.708,0,1.283,0.576,1.283,1.283V76.328z">
		</path>
	</g>
</svg>
