<svg xmlns="http://www.w3.org/2000/svg" width="427.79999999999995" height="112.65127873138591" viewBox="0 0 406 106.91075073619142">
	<defs id="SvgjsDefs2543">
	</defs>
	<style>
		.icon-path {
		fill: black
		}
		@media (prefers-color-scheme: dark) {
		.icon-path {
		fill: white
		}
		}
	</style>
	<g id="SvgjsG2544" featurekey="symbolFeature-0" transform="matrix(1.8053149026078668,0,0,1.8053149026078668,-40.26574513039334,-36.81036976229763)" fill="#000000">
		<path class="icon-path" xmlns="http://www.w3.org/2000/svg" d="M74.413,20.39H61.141c-1.811,0-3.283,1.473-3.283,3.283v13.272c0,1.811,1.473,3.283,3.283,3.283h13.272  c1.811,0,3.283-1.473,3.283-3.283V23.673C77.696,21.862,76.223,20.39,74.413,20.39z M75.696,36.945c0,0.708-0.576,1.283-1.283,1.283  H61.141c-0.708,0-1.283-0.576-1.283-1.283V23.673c0-0.708,0.576-1.283,1.283-1.283h13.272c0.708,0,1.283,0.576,1.283,1.283V36.945z">
		</path>
		<path class="icon-path" xmlns="http://www.w3.org/2000/svg" d="M48.827,36.089v27.822c0,2.636-2.145,4.78-4.78,4.78v2c3.739,0,6.78-3.042,6.78-6.78V36.089c0-2.636,2.145-4.78,4.78-4.78  v-2C51.869,29.309,48.827,32.351,48.827,36.089z">
		</path>
		<path class="icon-path" xmlns="http://www.w3.org/2000/svg" d="M38.859,59.772H25.587c-1.811,0-3.283,1.473-3.283,3.283v13.272c0,1.81,1.473,3.283,3.283,3.283h13.272  c1.811,0,3.283-1.473,3.283-3.283V63.056C42.142,61.245,40.67,59.772,38.859,59.772z M40.142,76.328  c0,0.708-0.576,1.283-1.283,1.283H25.587c-0.708,0-1.283-0.575-1.283-1.283V63.056c0-0.708,0.576-1.283,1.283-1.283h13.272  c0.708,0,1.283,0.576,1.283,1.283V76.328z">
		</path>
	</g>
	<g id="SvgjsG2546" featurekey="vMvB0T-0" transform="matrix(5.444247922291203,0,0,5.444247922291203,132.12021785132808,-28.714266058707928)" fill="#000000">
		<path class="icon-path" d="M6.9 9.38 c1.4267 0 2.5666 0.5 3.42 1.5 s1.28 2.3534 1.28 4.06 c0 1.56 -0.41 2.84 -1.23 3.84 s-1.9233 1.5 -3.31 1.5 c-1.36 0 -2.3934 -0.52 -3.1 -1.56 l-0.04 0 l0 4.92 l-2.84 0 l0 -13.98 l2.7 0 l0 1.32 l0.04 0 c0.68 -1.0667 1.7067 -1.6 3.08 -1.6 z M3.82 14.86 c0 1.0133 0.21336 1.8133 0.64002 2.4 s1.04 0.88 1.84 0.88 c0.82666 0 1.4433 -0.29334 1.85 -0.88 s0.61 -1.3867 0.61 -2.4 c0 -1.04 -0.22 -1.8567 -0.66 -2.45 s-1.0533 -0.89 -1.84 -0.89 s-1.39 0.29334 -1.81 0.88 s-0.63 1.4067 -0.63 2.46 z M18.32 9.38 c1.6533 0 2.96 0.50334 3.92 1.51 s1.44 2.3234 1.44 3.95 c0 1.64 -0.49 2.9566 -1.47 3.95 s-2.2766 1.49 -3.89 1.49 c-1.64 0 -2.94 -0.50334 -3.9 -1.51 s-1.44 -2.3166 -1.44 -3.93 c0 -1.6667 0.49 -2.9934 1.47 -3.98 s2.27 -1.48 3.87 -1.48 z M15.82 14.84 c0 1.0533 0.21334 1.8666 0.64 2.44 s1.0467 0.86 1.86 0.86 c0.84 0 1.47 -0.29334 1.89 -0.88 s0.63 -1.3933 0.63 -2.42 c0 -1.0667 -0.21666 -1.8867 -0.65 -2.46 s-1.0633 -0.86 -1.89 -0.86 c-0.8 0 -1.4133 0.28666 -1.84 0.86 s-0.64 1.3933 -0.64 2.46 z M31.560000000000002 9.38 c0.24 0 0.44668 0.03334 0.62002 0.1 l0 2.64 c-0.30666 -0.06666 -0.64666 -0.1 -1.02 -0.1 c-1.8667 0 -2.8 1.1067 -2.8 3.32 l0 4.66 l-2.84 0 l0 -10.34 l2.7 0 l0 1.92 l0.04 0 c0.28 -0.66666 0.72334 -1.2 1.33 -1.6 s1.2633 -0.6 1.97 -0.6 z M36.9 6.5600000000000005 l0.000019531 3.1 l2.08 0 l0 1.9 l-2.08 0 l0 5.12 c0 0.48 0.08 0.8 0.24 0.96 s0.48 0.24 0.96 0.24 c0.34666 0 0.64 -0.02666 0.88 -0.08 l0 2.22 c-0.4 0.06666 -0.96 0.1 -1.68 0.1 c-1.0933 0 -1.9067 -0.18666 -2.44 -0.56 s-0.8 -1.02 -0.8 -1.94 l0 -6.06 l-1.72 0 l0 -1.9 l1.72 0 l0 -3.1 l2.84 0 z M46.379999999999995 9.38 c0.24 0 0.44668 0.03334 0.62002 0.1 l0 2.64 c-0.30666 -0.06666 -0.64666 -0.1 -1.02 -0.1 c-1.8667 0 -2.8 1.1067 -2.8 3.32 l0 4.66 l-2.84 0 l0 -10.34 l2.7 0 l0 1.92 l0.04 0 c0.28 -0.66666 0.72334 -1.2 1.33 -1.6 s1.2633 -0.6 1.97 -0.6 z">
		</path>
	</g>
</svg>
