<svg xmlns="http://www.w3.org/2000/svg" viewBox="7.44 35.6 85.12 28.8">
	<style>
		.icon-path {
		fill: black
		}
		@media (prefers-color-scheme: dark) {
		.icon-path {
		fill: white
		}
		}
	</style>
	<path class="icon-path" fill="#000000" d="M11.20 45.44L11.20 64L7.44 64L7.44 45.60Q7.44 40.88 9.98 38.24Q12.52 35.60 16.72 35.60L16.72 35.60Q21.20 35.60 23.66 38.16Q26.12 40.72 26.12 44.68L26.12 44.68Q26.12 47.16 25.22 49Q24.32 50.84 22.80 51.84Q21.28 52.84 19.56 53.32Q17.84 53.80 15.96 53.80L15.96 53.80L12.96 53.80L12.96 50.28L16.40 50.28Q19.08 50.28 20.62 48.66Q22.16 47.04 22.16 44.60L22.16 44.60Q22.16 42.20 20.74 40.66Q19.32 39.12 16.68 39.12L16.68 39.12Q14.12 39.12 12.66 40.86Q11.20 42.60 11.20 45.44L11.20 45.44ZM32.12 47.32L32.12 47.32Q34.92 44.40 39.12 44.40L39.12 44.40Q41.16 44.40 42.94 45.18Q44.72 45.96 46.06 47.32Q47.40 48.68 48.16 50.50Q48.92 52.32 48.92 54.40L48.92 54.40Q48.92 56.48 48.18 58.30Q47.44 60.12 46.12 61.48Q44.80 62.84 43 63.62Q41.20 64.40 39.12 64.40L39.12 64.40Q37 64.40 35.22 63.62Q33.44 62.84 32.12 61.48Q30.80 60.12 30.06 58.30Q29.32 56.48 29.32 54.40L29.32 54.40Q29.32 50.16 32.12 47.32ZM39.12 47.76L39.12 47.76Q36.32 47.76 34.62 49.60Q32.92 51.44 32.92 54.40Q32.92 57.36 34.62 59.20Q36.32 61.04 39.12 61.04L39.12 61.04Q41.96 61.04 43.64 59.18Q45.32 57.32 45.32 54.40Q45.32 51.48 43.64 49.62Q41.96 47.76 39.12 47.76ZM56.04 64L52.52 64L52.52 53.08Q52.52 48.48 54.24 46.72L54.24 46.72Q55.08 45.84 56.28 45.40Q57.48 44.96 58.38 44.88Q59.28 44.80 60.84 44.80L60.84 44.80L64.36 44.80L64.36 48.16L60.12 48.16Q59.32 48.16 58.88 48.20Q58.44 48.24 57.84 48.48Q57.24 48.72 56.80 49.24L56.80 49.24Q56.04 50.20 56.04 53.08L56.04 53.08L56.04 64ZM68.52 48.16L64.96 48.16L72.12 41L72.12 44.80L77.52 44.80L77.52 48.16L72.12 48.16L72.12 56.40Q72.12 57.80 72.58 58.72Q73.04 59.64 73.92 60.02Q74.80 60.40 75.58 60.52Q76.36 60.64 77.52 60.64L77.52 60.64L77.52 64Q72.92 64 70.72 62.24Q68.52 60.48 68.52 56.40L68.52 56.40L68.52 48.16ZM84.24 64L80.72 64L80.72 53.08Q80.72 48.48 82.44 46.72L82.44 46.72Q83.28 45.84 84.48 45.40Q85.68 44.96 86.58 44.88Q87.48 44.80 89.04 44.80L89.04 44.80L92.56 44.80L92.56 48.16L88.32 48.16Q87.52 48.16 87.08 48.20Q86.64 48.24 86.04 48.48Q85.44 48.72 85 49.24L85 49.24Q84.24 50.20 84.24 53.08L84.24 53.08L84.24 64Z" />
</svg>
