<svg xmlns="http://www.w3.org/2000/svg" width="518.4000000000001" height="149.79063022065307" viewBox="0 0 370 106.91075073619142">
	<defs id="SvgjsDefs1565">
	</defs>
	<style>
		.icon-path {
		fill: black
		}
		@media (prefers-color-scheme: dark) {
		.icon-path {
		fill: white
		}
		}
	</style>
	<g id="SvgjsG1566" featurekey="v37d4h-0" transform="matrix(1.8053148984909058,0,0,1.8053148984909058,-40.26574513039334,-36.81036976229763)" fill="#000000">
		<path class="icon-path" xmlns="http://www.w3.org/2000/svg" d="M74.413,20.39H61.141c-1.811,0-3.283,1.473-3.283,3.283v13.272c0,1.811,1.473,3.283,3.283,3.283h13.272  c1.811,0,3.283-1.473,3.283-3.283V23.673C77.696,21.862,76.223,20.39,74.413,20.39z M75.696,36.945c0,0.708-0.576,1.283-1.283,1.283  H61.141c-0.708,0-1.283-0.576-1.283-1.283V23.673c0-0.708,0.576-1.283,1.283-1.283h13.272c0.708,0,1.283,0.576,1.283,1.283V36.945z">
		</path>
		<path class="icon-path" xmlns="http://www.w3.org/2000/svg" d="M48.827,36.089v27.822c0,2.636-2.145,4.78-4.78,4.78v2c3.739,0,6.78-3.042,6.78-6.78V36.089c0-2.636,2.145-4.78,4.78-4.78  v-2C51.869,29.309,48.827,32.351,48.827,36.089z">
		</path>
		<path class="icon-path" xmlns="http://www.w3.org/2000/svg" d="M38.859,59.772H25.587c-1.811,0-3.283,1.473-3.283,3.283v13.272c0,1.81,1.473,3.283,3.283,3.283h13.272  c1.811,0,3.283-1.473,3.283-3.283V63.056C42.142,61.245,40.67,59.772,38.859,59.772z M40.142,76.328  c0,0.708-0.576,1.283-1.283,1.283H25.587c-0.708,0-1.283-0.575-1.283-1.283V63.056c0-0.708,0.576-1.283,1.283-1.283h13.272  c0.708,0,1.283,0.576,1.283,1.283V76.328z">
		</path>
	</g>
	<g id="SvgjsG1567" featurekey="UxBHKT-0" transform="matrix(5.4026360511779785,0,0,5.4026360511779785,113.51678186474037,-30.854863308018096)" fill="#000000">
		<path class="icon-path" d="M9.878 11.348 c0.928 0.968 1.438 2.254 1.438 3.622 s-0.51 2.654 -1.438 3.622 c-0.93 0.972 -2.168 1.508 -3.486 1.508 c-0.9248 0 -1.8332 -0.2734 -2.612 -0.7792 l0 4.3392 c0 0.1484 -0.098398 0.2742 -0.2334 0.3156 c-0.038398 0.015801 -0.080606 0.02461 -0.12461 0.02461 l-1.86 0 c-0.046796 0 -0.091192 -0.0098046 -0.13158 -0.027402 c-0.1334 -0.042206 -0.2304 -0.1674 -0.2304 -0.3148 l0 -13.48 c0 -0.18199 0.14801 -0.33 0.33 -0.33 s0.33 0.14801 0.33 0.33 l0 13.162 l1.26 0 l0 -13.158 c0 -0.18199 0.14801 -0.33 0.33 -0.33 s0.33 0.14801 0.33 0.33 l0 0.43721 c0.3 -0.196 0.6192 -0.357 0.954 -0.4812 c0.532 -0.19801 1.088 -0.298 1.658 -0.298 c1.318 0 2.556 0.536 3.486 1.508 l0 -0.000039062 z M6.392 10.5 c-0.9578 0 -1.8596 0.32298 -2.612 0.9368 l0 5.2884 l4.9124 -5.517 c-0.6642 -0.448 -1.454 -0.7082 -2.3004 -0.7082 l0.000019531 0 z M3.78 17.7176 l-0.000019531 0.7864 c0.1598 0.1302 0.32622 0.24718 0.49842 0.351 l5.598 -6.458 c-0.1926 -0.2858 -0.4164 -0.547 -0.6662 -0.77798 z M6.392 19.43998 c2.35 0 4.2638 -2.004 4.2638 -4.47 c0 -0.7042 -0.15641 -1.3712 -0.4346 -1.9644 l-5.331 6.1518 c0.4734 0.1866 0.9788 0.2826 1.5018 0.2826 l0.000019531 0 z M20.93 11.37 c0.926 0.968 1.436 2.254 1.436 3.622 s-0.51 2.654 -1.436 3.622 c-0.932 0.972 -2.17 1.506 -3.488 1.506 s-2.556 -0.534 -3.486 -1.506 c-0.926 -0.968 -1.436 -2.254 -1.436 -3.622 s0.51 -2.654 1.436 -3.622 c0.93 -0.972 2.168 -1.506 3.486 -1.506 s2.556 0.534 3.488 1.506 z M16.898 10.5598 l-0.000019531 8.8646 c0.179 0.023808 0.3606 0.0358 0.544 0.0358 c0.1642 0 0.3272 -0.0096094 0.488 -0.028614 l0 -8.8786 c-0.161 -0.019199 -0.32378 -0.028808 -0.48798 -0.028808 c-0.1834 0 -0.365 0.011992 -0.544 0.035586 l0 0.000019531 z M20.451999999999998 18.1582 c0.808 -0.846 1.254 -1.97 1.254 -3.166 s-0.446 -2.32 -1.254 -3.164 c-0.5256 -0.5504 -1.165 -0.9384 -1.862 -1.1412 l0 8.6108 c0.6974 -0.2024 1.3362 -0.5902 1.862 -1.1396 l0 0 z M14.434 18.1582 c0.5114 0.5342 1.1294 0.91562 1.804 1.1224 l0 -8.5766 c-0.6746 0.207 -1.2926 0.58878 -1.804 1.1242 c-0.808 0.844 -1.254 1.968 -1.254 3.164 s0.446 2.32 1.254 3.166 l0 0 z M31.723999999999997 12.078 c0.044004 0.176 -0.065782 0.354 -0.24178 0.398 c-0.17801 0.044004 -0.35602 -0.065996 -0.398 -0.242 c-0.098008 -0.4 -0.31202 -0.764 -0.618 -1.054 c-0.434 -0.41 -1.008 -0.638 -1.62 -0.638 c-1.268 0 -2.298 0.98 -2.298 2.184 l-0.0080078 0.072402 l0 6.8616 c0 0.1484 -0.098398 0.2742 -0.2334 0.3156 c-0.038594 0.015801 -0.080586 0.024394 -0.12479 0.024394 l-1.86 0 c-0.053008 0 -0.1032 -0.012598 -0.14781 -0.034804 c-0.125 -0.046992 -0.2142 -0.16779 -0.2142 -0.3092 l0 -9.336 c0 -0.18199 0.14801 -0.33 0.33 -0.33 s0.33 0.14801 0.33 0.33 l0 9.02 l1.26 0 l0 -6.646 l0.010391 -0.082208 c0.062402 -1.5152 1.3634 -2.7298 2.9556 -2.7298 c0.78 0 1.518 0.292 2.074 0.82 c0.4 0.378 0.678 0.854 0.804 1.376 l0 0 z M37.717999999999996 18.754 c0.134 0.12199 0.14381 0.33004 0.021816 0.46604 c-0.452 0.496 -1.088 0.782 -1.746 0.782 c-0.604 0 -1.18 -0.234 -1.624 -0.656 c-0.438 -0.418 -0.71 -0.98602 -0.7664 -1.6034 c-0.0035938 -0.019609 -0.0053906 -0.039804 -0.0053906 -0.060606 l0 -7.03 l-0.53801 0 c-0.18 0 -0.32 -0.14 -0.32 -0.34 c0 -0.18 0.14 -0.32 0.32 -0.32 l0.53801 0 l0 -1.47 c0 -0.18199 0.14801 -0.33 0.33 -0.33 s0.33 0.14801 0.33 0.33 l0.0019922 9.166 c0.041992 0.454 0.242 0.87202 0.56398 1.18 c0.2012 0.19141 0.4384 0.32862 0.694 0.4048 l0 -11.751 c0 -0.18199 0.14801 -0.33 0.33 -0.33 c0.184 0 0.33 0.14801 0.33 0.33 l0 2.47 l1.398 0 c0.18 0 0.32 0.14 0.32 0.32 c0 0.2 -0.14 0.34 -0.32 0.34 l-1.398 0 l0 8.6802 c0.4092 -0.04461 0.7848 -0.2374 1.074 -0.55622 c0.12199 -0.136 0.33 -0.146 0.466 -0.021992 l0 -0.000019531 z M47.464 12.078 c0.044004 0.176 -0.065782 0.354 -0.24178 0.398 c-0.17801 0.044004 -0.35602 -0.065996 -0.398 -0.242 c-0.098008 -0.4 -0.31202 -0.764 -0.618 -1.054 c-0.434 -0.41 -1.008 -0.638 -1.62 -0.638 c-1.268 0 -2.298 0.98 -2.298 2.184 l-0.0080078 0.072402 l0 6.8616 c0 0.1484 -0.098398 0.2742 -0.2334 0.3156 c-0.038594 0.015801 -0.080586 0.024394 -0.12479 0.024394 l-1.86 0 c-0.053008 0 -0.1032 -0.012598 -0.14781 -0.034804 c-0.125 -0.046992 -0.2142 -0.16779 -0.2142 -0.3092 l0 -9.336 c0 -0.18199 0.14801 -0.33 0.33 -0.33 s0.33 0.14801 0.33 0.33 l0 9.02 l1.26 0 l0 -6.646 l0.010391 -0.082208 c0.062402 -1.5152 1.3634 -2.7298 2.9556 -2.7298 c0.78 0 1.518 0.292 2.074 0.82 c0.4 0.378 0.678 0.854 0.804 1.376 l0 0 z">
		</path>
	</g>
</svg>
